%TF.GenerationSoftware,KiCad,Pcbnew,(6.0.2)*%
%TF.CreationDate,2022-05-06T23:35:53-05:00*%
%TF.ProjectId,PXT6,50585436-2e6b-4696-9361-645f70636258,rev?*%
%TF.SameCoordinates,Original*%
%TF.FileFunction,Copper,L2,Bot*%
%TF.FilePolarity,Positive*%
%FSLAX46Y46*%
G04 Gerber Fmt 4.6, Leading zero omitted, Abs format (unit mm)*
G04 Created by KiCad (PCBNEW (6.0.2)) date 2022-05-06 23:35:53*
%MOMM*%
%LPD*%
G01*
G04 APERTURE LIST*
%TA.AperFunction,NonConductor*%
%ADD10C,0.750000*%
%TD*%
%TA.AperFunction,NonConductor*%
%ADD11C,1.945000*%
%TD*%
%TA.AperFunction,NonConductor*%
%ADD12C,2.140000*%
%TD*%
%TA.AperFunction,NonConductor*%
%ADD13C,0.000000*%
%TD*%
%TA.AperFunction,NonConductor*%
%ADD14C,0.700000*%
%TD*%
%TA.AperFunction,NonConductor*%
%ADD15C,0.500000*%
%TD*%
%TA.AperFunction,NonConductor*%
%ADD16C,0.875000*%
%TD*%
%TA.AperFunction,NonConductor*%
%ADD17C,0.760000*%
%TD*%
%TA.AperFunction,NonConductor*%
%ADD18C,0.625000*%
%TD*%
%TA.AperFunction,ViaPad*%
%ADD19C,0.500010*%
%TD*%
%TA.AperFunction,ViaPad*%
%ADD20C,0.720010*%
%TD*%
%TA.AperFunction,ViaPad*%
%ADD21C,0.800010*%
%TD*%
%TA.AperFunction,ViaPad*%
%ADD22C,1.000010*%
%TD*%
%TA.AperFunction,ViaPad*%
%ADD23C,1.080010*%
%TD*%
%TA.AperFunction,ViaPad*%
%ADD24C,1.300010*%
%TD*%
%TA.AperFunction,ViaPad*%
%ADD25C,3.250010*%
%TD*%
%TA.AperFunction,ViaPad*%
%ADD26C,3.370010*%
%TD*%
%TA.AperFunction,Conductor*%
%ADD27C,0.350000*%
%TD*%
%TA.AperFunction,Conductor*%
%ADD28C,0.250000*%
%TD*%
%TA.AperFunction,Conductor*%
%ADD29C,0.600000*%
%TD*%
%TA.AperFunction,Conductor*%
%ADD30C,0.200000*%
%TD*%
%TA.AperFunction,Conductor*%
%ADD31C,0.124000*%
%TD*%
G04 APERTURE END LIST*
D10*
X117635500Y-46205900D02*
G75*
G03*
X117635500Y-46205900I-375000J0D01*
G01*
D11*
X165024600Y-129708500D02*
G75*
G03*
X165024600Y-129708500I-972500J0D01*
G01*
D12*
X119759300Y-98474400D02*
G75*
G03*
X119759300Y-98474400I-1070000J0D01*
G01*
X113131500Y-139233500D02*
G75*
G03*
X113131500Y-139233500I-1070000J0D01*
G01*
X165161800Y-139193800D02*
G75*
G03*
X165161800Y-139193800I-1070000J0D01*
G01*
X119679900Y-51127200D02*
G75*
G03*
X119679900Y-51127200I-1070000J0D01*
G01*
D10*
X157680200Y-121691600D02*
G75*
G03*
X157680200Y-121691600I-375000J0D01*
G01*
X157680200Y-126811300D02*
G75*
G03*
X157680200Y-126811300I-375000J0D01*
G01*
D13*
G36*
X116134900Y-127273100D02*
G01*
X114734900Y-127273100D01*
X114734900Y-125873100D01*
X116134900Y-125873100D01*
X116134900Y-127273100D01*
G37*
D14*
X118324900Y-126573100D02*
G75*
G03*
X118324900Y-126573100I-350000J0D01*
G01*
X120864900Y-126573100D02*
G75*
G03*
X120864900Y-126573100I-350000J0D01*
G01*
X123404900Y-126573100D02*
G75*
G03*
X123404900Y-126573100I-350000J0D01*
G01*
X125944900Y-126573100D02*
G75*
G03*
X125944900Y-126573100I-350000J0D01*
G01*
X128484900Y-126573100D02*
G75*
G03*
X128484900Y-126573100I-350000J0D01*
G01*
X131024900Y-126573100D02*
G75*
G03*
X131024900Y-126573100I-350000J0D01*
G01*
X133564900Y-126573100D02*
G75*
G03*
X133564900Y-126573100I-350000J0D01*
G01*
X136104900Y-126573100D02*
G75*
G03*
X136104900Y-126573100I-350000J0D01*
G01*
X138644900Y-126573100D02*
G75*
G03*
X138644900Y-126573100I-350000J0D01*
G01*
X141184900Y-126573100D02*
G75*
G03*
X141184900Y-126573100I-350000J0D01*
G01*
X143724900Y-126573100D02*
G75*
G03*
X143724900Y-126573100I-350000J0D01*
G01*
X146264900Y-126573100D02*
G75*
G03*
X146264900Y-126573100I-350000J0D01*
G01*
X148804900Y-126573100D02*
G75*
G03*
X148804900Y-126573100I-350000J0D01*
G01*
X151344900Y-126573100D02*
G75*
G03*
X151344900Y-126573100I-350000J0D01*
G01*
X153884900Y-126573100D02*
G75*
G03*
X153884900Y-126573100I-350000J0D01*
G01*
X153884900Y-111333100D02*
G75*
G03*
X153884900Y-111333100I-350000J0D01*
G01*
X151344900Y-111333100D02*
G75*
G03*
X151344900Y-111333100I-350000J0D01*
G01*
X148804900Y-111333100D02*
G75*
G03*
X148804900Y-111333100I-350000J0D01*
G01*
X146264900Y-111333100D02*
G75*
G03*
X146264900Y-111333100I-350000J0D01*
G01*
X143724900Y-111333100D02*
G75*
G03*
X143724900Y-111333100I-350000J0D01*
G01*
X141184900Y-111333100D02*
G75*
G03*
X141184900Y-111333100I-350000J0D01*
G01*
X138644900Y-111333100D02*
G75*
G03*
X138644900Y-111333100I-350000J0D01*
G01*
X136104900Y-111333100D02*
G75*
G03*
X136104900Y-111333100I-350000J0D01*
G01*
X133564900Y-111333100D02*
G75*
G03*
X133564900Y-111333100I-350000J0D01*
G01*
X131024900Y-111333100D02*
G75*
G03*
X131024900Y-111333100I-350000J0D01*
G01*
X128484900Y-111333100D02*
G75*
G03*
X128484900Y-111333100I-350000J0D01*
G01*
X125944900Y-111333100D02*
G75*
G03*
X125944900Y-111333100I-350000J0D01*
G01*
X123404900Y-111333100D02*
G75*
G03*
X123404900Y-111333100I-350000J0D01*
G01*
X120864900Y-111333100D02*
G75*
G03*
X120864900Y-111333100I-350000J0D01*
G01*
X118324900Y-111333100D02*
G75*
G03*
X118324900Y-111333100I-350000J0D01*
G01*
X115784900Y-111333100D02*
G75*
G03*
X115784900Y-111333100I-350000J0D01*
G01*
D10*
X166689300Y-106372200D02*
G75*
G03*
X166689300Y-106372200I-375000J0D01*
G01*
X164069900Y-106372200D02*
G75*
G03*
X164069900Y-106372200I-375000J0D01*
G01*
X169268900Y-106372200D02*
G75*
G03*
X169268900Y-106372200I-375000J0D01*
G01*
D15*
X148665200Y-106332500D02*
G75*
G03*
X148665200Y-106332500I-250000J0D01*
G01*
X151205200Y-107007200D02*
G75*
G03*
X151205200Y-107007200I-250000J0D01*
G01*
X149895500Y-109507500D02*
G75*
G03*
X149895500Y-109507500I-250000J0D01*
G01*
X142235800Y-109467800D02*
G75*
G03*
X142235800Y-109467800I-250000J0D01*
G01*
X139656100Y-109467800D02*
G75*
G03*
X139656100Y-109467800I-250000J0D01*
G01*
X137155800Y-109467800D02*
G75*
G03*
X137155800Y-109467800I-250000J0D01*
G01*
X134615800Y-109428100D02*
G75*
G03*
X134615800Y-109428100I-250000J0D01*
G01*
X132075800Y-109388500D02*
G75*
G03*
X132075800Y-109388500I-250000J0D01*
G01*
X126956100Y-109388500D02*
G75*
G03*
X126956100Y-109388500I-250000J0D01*
G01*
X124376500Y-109348800D02*
G75*
G03*
X124376500Y-109348800I-250000J0D01*
G01*
X121836500Y-109348800D02*
G75*
G03*
X121836500Y-109348800I-250000J0D01*
G01*
X119296500Y-109348800D02*
G75*
G03*
X119296500Y-109348800I-250000J0D01*
G01*
X116756500Y-109348800D02*
G75*
G03*
X116756500Y-109348800I-250000J0D01*
G01*
X125646500Y-113873100D02*
G75*
G03*
X125646500Y-113873100I-250000J0D01*
G01*
X127988000Y-113595300D02*
G75*
G03*
X127988000Y-113595300I-250000J0D01*
G01*
X130210500Y-116413100D02*
G75*
G03*
X130210500Y-116413100I-250000J0D01*
G01*
X130488300Y-120302500D02*
G75*
G03*
X130488300Y-120302500I-250000J0D01*
G01*
X132552100Y-118992800D02*
G75*
G03*
X132552100Y-118992800I-250000J0D01*
G01*
X132036100Y-121572500D02*
G75*
G03*
X132036100Y-121572500I-250000J0D01*
G01*
X137116100Y-118794400D02*
G75*
G03*
X137116100Y-118794400I-250000J0D01*
G01*
X138862400Y-117246600D02*
G75*
G03*
X138862400Y-117246600I-250000J0D01*
G01*
X139140200Y-119588100D02*
G75*
G03*
X139140200Y-119588100I-250000J0D01*
G01*
X139140200Y-121850300D02*
G75*
G03*
X139140200Y-121850300I-250000J0D01*
G01*
X141164300Y-124430000D02*
G75*
G03*
X141164300Y-124430000I-250000J0D01*
G01*
X143505800Y-124191900D02*
G75*
G03*
X143505800Y-124191900I-250000J0D01*
G01*
X155015200Y-119151600D02*
G75*
G03*
X155015200Y-119151600I-250000J0D01*
G01*
X153745200Y-116571900D02*
G75*
G03*
X153745200Y-116571900I-250000J0D01*
G01*
X144815500Y-113952500D02*
G75*
G03*
X144815500Y-113952500I-250000J0D01*
G01*
X119217100Y-128438500D02*
G75*
G03*
X119217100Y-128438500I-250000J0D01*
G01*
X121796800Y-128478100D02*
G75*
G03*
X121796800Y-128478100I-250000J0D01*
G01*
X126916500Y-128478100D02*
G75*
G03*
X126916500Y-128478100I-250000J0D01*
G01*
X129416800Y-128517800D02*
G75*
G03*
X129416800Y-128517800I-250000J0D01*
G01*
X134576100Y-128557500D02*
G75*
G03*
X134576100Y-128557500I-250000J0D01*
G01*
X137116100Y-128557500D02*
G75*
G03*
X137116100Y-128557500I-250000J0D01*
G01*
X139616500Y-128557500D02*
G75*
G03*
X139616500Y-128557500I-250000J0D01*
G01*
X142196100Y-128636900D02*
G75*
G03*
X142196100Y-128636900I-250000J0D01*
G01*
X147315800Y-129906900D02*
G75*
G03*
X147315800Y-129906900I-250000J0D01*
G01*
X150530500Y-131176900D02*
G75*
G03*
X150530500Y-131176900I-250000J0D01*
G01*
X136560500Y-97363100D02*
G75*
G03*
X136560500Y-97363100I-250000J0D01*
G01*
X161404900Y-98117200D02*
G75*
G03*
X161404900Y-98117200I-250000J0D01*
G01*
X162079600Y-88552500D02*
G75*
G03*
X162079600Y-88552500I-250000J0D01*
G01*
X148030200Y-85853800D02*
G75*
G03*
X148030200Y-85853800I-250000J0D01*
G01*
X125051100Y-92799100D02*
G75*
G03*
X125051100Y-92799100I-250000J0D01*
G01*
X126360800Y-91529100D02*
G75*
G03*
X126360800Y-91529100I-250000J0D01*
G01*
X127551500Y-92799100D02*
G75*
G03*
X127551500Y-92799100I-250000J0D01*
G01*
X128900800Y-91489400D02*
G75*
G03*
X128900800Y-91489400I-250000J0D01*
G01*
X130210500Y-92838800D02*
G75*
G03*
X130210500Y-92838800I-250000J0D01*
G01*
X132036100Y-92838800D02*
G75*
G03*
X132036100Y-92838800I-250000J0D01*
G01*
X133425200Y-91608500D02*
G75*
G03*
X133425200Y-91608500I-250000J0D01*
G01*
X134655500Y-92878500D02*
G75*
G03*
X134655500Y-92878500I-250000J0D01*
G01*
X135965200Y-91529100D02*
G75*
G03*
X135965200Y-91529100I-250000J0D01*
G01*
X137195500Y-92838800D02*
G75*
G03*
X137195500Y-92838800I-250000J0D01*
G01*
X138505200Y-91648100D02*
G75*
G03*
X138505200Y-91648100I-250000J0D01*
G01*
X139735500Y-92878500D02*
G75*
G03*
X139735500Y-92878500I-250000J0D01*
G01*
X141084900Y-91568800D02*
G75*
G03*
X141084900Y-91568800I-250000J0D01*
G01*
X142315200Y-92918100D02*
G75*
G03*
X142315200Y-92918100I-250000J0D01*
G01*
X143585200Y-91648100D02*
G75*
G03*
X143585200Y-91648100I-250000J0D01*
G01*
X144855200Y-92918100D02*
G75*
G03*
X144855200Y-92918100I-250000J0D01*
G01*
X146164900Y-91648100D02*
G75*
G03*
X146164900Y-91648100I-250000J0D01*
G01*
X147434900Y-92957800D02*
G75*
G03*
X147434900Y-92957800I-250000J0D01*
G01*
X148784300Y-91687800D02*
G75*
G03*
X148784300Y-91687800I-250000J0D01*
G01*
X137235200Y-81964400D02*
G75*
G03*
X137235200Y-81964400I-250000J0D01*
G01*
X143585200Y-78154400D02*
G75*
G03*
X143585200Y-78154400I-250000J0D01*
G01*
X142315200Y-76249400D02*
G75*
G03*
X142315200Y-76249400I-250000J0D01*
G01*
X144855200Y-75019100D02*
G75*
G03*
X144855200Y-75019100I-250000J0D01*
G01*
X148069900Y-81448500D02*
G75*
G03*
X148069900Y-81448500I-250000J0D01*
G01*
X151919600Y-69264400D02*
G75*
G03*
X151919600Y-69264400I-250000J0D01*
G01*
X155808900Y-69859700D02*
G75*
G03*
X155808900Y-69859700I-250000J0D01*
G01*
X157039300Y-67319700D02*
G75*
G03*
X157039300Y-67319700I-250000J0D01*
G01*
X158348900Y-57120000D02*
G75*
G03*
X158348900Y-57120000I-250000J0D01*
G01*
X147474600Y-49341300D02*
G75*
G03*
X147474600Y-49341300I-250000J0D01*
G01*
X170493300Y-50095300D02*
G75*
G03*
X170493300Y-50095300I-250000J0D01*
G01*
X148030200Y-100538100D02*
G75*
G03*
X148030200Y-100538100I-250000J0D01*
G01*
X149300200Y-99347500D02*
G75*
G03*
X149300200Y-99347500I-250000J0D01*
G01*
D10*
X154505200Y-103038500D02*
G75*
G03*
X154505200Y-103038500I-375000J0D01*
G01*
X154584600Y-97958500D02*
G75*
G03*
X154584600Y-97958500I-375000J0D01*
G01*
X159029600Y-81964400D02*
G75*
G03*
X159029600Y-81964400I-375000J0D01*
G01*
X153949600Y-81964400D02*
G75*
G03*
X153949600Y-81964400I-375000J0D01*
G01*
X145019900Y-82004100D02*
G75*
G03*
X145019900Y-82004100I-375000J0D01*
G01*
X139900200Y-81964400D02*
G75*
G03*
X139900200Y-81964400I-375000J0D01*
G01*
X130970500Y-82043800D02*
G75*
G03*
X130970500Y-82043800I-375000J0D01*
G01*
X125850800Y-82083500D02*
G75*
G03*
X125850800Y-82083500I-375000J0D01*
G01*
X124064900Y-46205900D02*
G75*
G03*
X124064900Y-46205900I-375000J0D01*
G01*
X125890500Y-46205900D02*
G75*
G03*
X125890500Y-46205900I-375000J0D01*
G01*
X129779900Y-46205900D02*
G75*
G03*
X129779900Y-46205900I-375000J0D01*
G01*
X129779900Y-43626300D02*
G75*
G03*
X129779900Y-43626300I-375000J0D01*
G01*
X125930200Y-43626300D02*
G75*
G03*
X125930200Y-43626300I-375000J0D01*
G01*
D16*
X140716800Y-43586600D02*
G75*
G03*
X140716800Y-43586600I-437500J0D01*
G01*
X143733000Y-43586600D02*
G75*
G03*
X143733000Y-43586600I-437500J0D01*
G01*
X137581400Y-43586600D02*
G75*
G03*
X137581400Y-43586600I-437500J0D01*
G01*
X134287400Y-43586600D02*
G75*
G03*
X134287400Y-43586600I-437500J0D01*
G01*
X134287400Y-43586600D02*
G75*
G03*
X134287400Y-43586600I-437500J0D01*
G01*
X147027100Y-43586600D02*
G75*
G03*
X147027100Y-43586600I-437500J0D01*
G01*
D10*
X144384900Y-51246300D02*
G75*
G03*
X144384900Y-51246300I-375000J0D01*
G01*
X150814300Y-51246300D02*
G75*
G03*
X150814300Y-51246300I-375000J0D01*
G01*
D13*
G36*
X154351200Y-78718700D02*
G01*
X152951200Y-78718700D01*
X152951200Y-77318700D01*
X154351200Y-77318700D01*
X154351200Y-78718700D01*
G37*
D14*
X154001200Y-75478700D02*
G75*
G03*
X154001200Y-75478700I-350000J0D01*
G01*
X154001200Y-72938700D02*
G75*
G03*
X154001200Y-72938700I-350000J0D01*
G01*
X154001200Y-70398700D02*
G75*
G03*
X154001200Y-70398700I-350000J0D01*
G01*
X154001200Y-67858700D02*
G75*
G03*
X154001200Y-67858700I-350000J0D01*
G01*
X154001200Y-65318700D02*
G75*
G03*
X154001200Y-65318700I-350000J0D01*
G01*
X154001200Y-62778700D02*
G75*
G03*
X154001200Y-62778700I-350000J0D01*
G01*
X154001200Y-60238700D02*
G75*
G03*
X154001200Y-60238700I-350000J0D01*
G01*
X154001200Y-57698700D02*
G75*
G03*
X154001200Y-57698700I-350000J0D01*
G01*
X154001200Y-55158700D02*
G75*
G03*
X154001200Y-55158700I-350000J0D01*
G01*
X154001200Y-52618700D02*
G75*
G03*
X154001200Y-52618700I-350000J0D01*
G01*
X154001200Y-50078700D02*
G75*
G03*
X154001200Y-50078700I-350000J0D01*
G01*
X161621200Y-50078700D02*
G75*
G03*
X161621200Y-50078700I-350000J0D01*
G01*
X161621200Y-52618700D02*
G75*
G03*
X161621200Y-52618700I-350000J0D01*
G01*
X161621200Y-55158700D02*
G75*
G03*
X161621200Y-55158700I-350000J0D01*
G01*
X161621200Y-57698700D02*
G75*
G03*
X161621200Y-57698700I-350000J0D01*
G01*
X161621200Y-60238700D02*
G75*
G03*
X161621200Y-60238700I-350000J0D01*
G01*
X161621200Y-62778700D02*
G75*
G03*
X161621200Y-62778700I-350000J0D01*
G01*
X161621200Y-65318700D02*
G75*
G03*
X161621200Y-65318700I-350000J0D01*
G01*
X161621200Y-67858700D02*
G75*
G03*
X161621200Y-67858700I-350000J0D01*
G01*
X161621200Y-70398700D02*
G75*
G03*
X161621200Y-70398700I-350000J0D01*
G01*
X161621200Y-72938700D02*
G75*
G03*
X161621200Y-72938700I-350000J0D01*
G01*
X161621200Y-75478700D02*
G75*
G03*
X161621200Y-75478700I-350000J0D01*
G01*
X161621200Y-78018700D02*
G75*
G03*
X161621200Y-78018700I-350000J0D01*
G01*
D13*
G36*
X140301800Y-78758500D02*
G01*
X138901800Y-78758500D01*
X138901800Y-77358500D01*
X140301800Y-77358500D01*
X140301800Y-78758500D01*
G37*
D14*
X139951800Y-75518500D02*
G75*
G03*
X139951800Y-75518500I-350000J0D01*
G01*
X139951800Y-72978500D02*
G75*
G03*
X139951800Y-72978500I-350000J0D01*
G01*
X139951800Y-70438500D02*
G75*
G03*
X139951800Y-70438500I-350000J0D01*
G01*
X139951800Y-67898500D02*
G75*
G03*
X139951800Y-67898500I-350000J0D01*
G01*
X139951800Y-65358500D02*
G75*
G03*
X139951800Y-65358500I-350000J0D01*
G01*
X139951800Y-62818500D02*
G75*
G03*
X139951800Y-62818500I-350000J0D01*
G01*
X139951800Y-60278500D02*
G75*
G03*
X139951800Y-60278500I-350000J0D01*
G01*
X139951800Y-57738500D02*
G75*
G03*
X139951800Y-57738500I-350000J0D01*
G01*
X139951800Y-55198500D02*
G75*
G03*
X139951800Y-55198500I-350000J0D01*
G01*
X147571800Y-55198500D02*
G75*
G03*
X147571800Y-55198500I-350000J0D01*
G01*
X147571800Y-57738500D02*
G75*
G03*
X147571800Y-57738500I-350000J0D01*
G01*
X147571800Y-60278500D02*
G75*
G03*
X147571800Y-60278500I-350000J0D01*
G01*
X147571800Y-62818500D02*
G75*
G03*
X147571800Y-62818500I-350000J0D01*
G01*
X147571800Y-65358500D02*
G75*
G03*
X147571800Y-65358500I-350000J0D01*
G01*
X147571800Y-67898500D02*
G75*
G03*
X147571800Y-67898500I-350000J0D01*
G01*
X147571800Y-70438500D02*
G75*
G03*
X147571800Y-70438500I-350000J0D01*
G01*
X147571800Y-72978500D02*
G75*
G03*
X147571800Y-72978500I-350000J0D01*
G01*
X147571800Y-75518500D02*
G75*
G03*
X147571800Y-75518500I-350000J0D01*
G01*
X147571800Y-78058500D02*
G75*
G03*
X147571800Y-78058500I-350000J0D01*
G01*
D13*
G36*
X126292100Y-78758500D02*
G01*
X124892100Y-78758500D01*
X124892100Y-77358500D01*
X126292100Y-77358500D01*
X126292100Y-78758500D01*
G37*
D14*
X125942100Y-75518500D02*
G75*
G03*
X125942100Y-75518500I-350000J0D01*
G01*
X125942100Y-72978500D02*
G75*
G03*
X125942100Y-72978500I-350000J0D01*
G01*
X125942100Y-70438500D02*
G75*
G03*
X125942100Y-70438500I-350000J0D01*
G01*
X125942100Y-67898500D02*
G75*
G03*
X125942100Y-67898500I-350000J0D01*
G01*
X125942100Y-65358500D02*
G75*
G03*
X125942100Y-65358500I-350000J0D01*
G01*
X125942100Y-62818500D02*
G75*
G03*
X125942100Y-62818500I-350000J0D01*
G01*
X125942100Y-60278500D02*
G75*
G03*
X125942100Y-60278500I-350000J0D01*
G01*
X125942100Y-57738500D02*
G75*
G03*
X125942100Y-57738500I-350000J0D01*
G01*
X125942100Y-55198500D02*
G75*
G03*
X125942100Y-55198500I-350000J0D01*
G01*
X133562100Y-55198500D02*
G75*
G03*
X133562100Y-55198500I-350000J0D01*
G01*
X133562100Y-57738500D02*
G75*
G03*
X133562100Y-57738500I-350000J0D01*
G01*
X133562100Y-60278500D02*
G75*
G03*
X133562100Y-60278500I-350000J0D01*
G01*
X133562100Y-62818500D02*
G75*
G03*
X133562100Y-62818500I-350000J0D01*
G01*
X133562100Y-65358500D02*
G75*
G03*
X133562100Y-65358500I-350000J0D01*
G01*
X133562100Y-67898500D02*
G75*
G03*
X133562100Y-67898500I-350000J0D01*
G01*
X133562100Y-70438500D02*
G75*
G03*
X133562100Y-70438500I-350000J0D01*
G01*
X133562100Y-72978500D02*
G75*
G03*
X133562100Y-72978500I-350000J0D01*
G01*
X133562100Y-75518500D02*
G75*
G03*
X133562100Y-75518500I-350000J0D01*
G01*
X133562100Y-78058500D02*
G75*
G03*
X133562100Y-78058500I-350000J0D01*
G01*
D13*
G36*
X120691400Y-59041300D02*
G01*
X119171400Y-59041300D01*
X119171400Y-57521300D01*
X120691400Y-57521300D01*
X120691400Y-59041300D01*
G37*
D17*
X120311400Y-61051300D02*
G75*
G03*
X120311400Y-61051300I-380000J0D01*
G01*
X120311400Y-63821300D02*
G75*
G03*
X120311400Y-63821300I-380000J0D01*
G01*
X120311400Y-66591300D02*
G75*
G03*
X120311400Y-66591300I-380000J0D01*
G01*
X120311400Y-69351300D02*
G75*
G03*
X120311400Y-69351300I-380000J0D01*
G01*
X120311400Y-72121300D02*
G75*
G03*
X120311400Y-72121300I-380000J0D01*
G01*
X120311400Y-74891300D02*
G75*
G03*
X120311400Y-74891300I-380000J0D01*
G01*
X120311400Y-77661300D02*
G75*
G03*
X120311400Y-77661300I-380000J0D01*
G01*
X120311400Y-80431300D02*
G75*
G03*
X120311400Y-80431300I-380000J0D01*
G01*
X120311400Y-83201300D02*
G75*
G03*
X120311400Y-83201300I-380000J0D01*
G01*
X120311400Y-85971300D02*
G75*
G03*
X120311400Y-85971300I-380000J0D01*
G01*
X120311400Y-88731300D02*
G75*
G03*
X120311400Y-88731300I-380000J0D01*
G01*
X120311400Y-91501300D02*
G75*
G03*
X120311400Y-91501300I-380000J0D01*
G01*
X117471400Y-59651300D02*
G75*
G03*
X117471400Y-59651300I-380000J0D01*
G01*
X117471400Y-62421300D02*
G75*
G03*
X117471400Y-62421300I-380000J0D01*
G01*
X117471400Y-65191300D02*
G75*
G03*
X117471400Y-65191300I-380000J0D01*
G01*
X117471400Y-67961300D02*
G75*
G03*
X117471400Y-67961300I-380000J0D01*
G01*
X117471400Y-70731300D02*
G75*
G03*
X117471400Y-70731300I-380000J0D01*
G01*
X117471400Y-73491300D02*
G75*
G03*
X117471400Y-73491300I-380000J0D01*
G01*
X117471400Y-76261300D02*
G75*
G03*
X117471400Y-76261300I-380000J0D01*
G01*
X117471400Y-79031300D02*
G75*
G03*
X117471400Y-79031300I-380000J0D01*
G01*
X117471400Y-81801300D02*
G75*
G03*
X117471400Y-81801300I-380000J0D01*
G01*
X117471400Y-84571300D02*
G75*
G03*
X117471400Y-84571300I-380000J0D01*
G01*
X117471400Y-87341300D02*
G75*
G03*
X117471400Y-87341300I-380000J0D01*
G01*
X117471400Y-90111300D02*
G75*
G03*
X117471400Y-90111300I-380000J0D01*
G01*
D13*
G36*
X115196800Y-94386600D02*
G01*
X123253300Y-94386600D01*
X123293000Y-94426300D01*
X123293000Y-94823100D01*
X123332700Y-94862800D01*
X127261800Y-94862800D01*
X127261800Y-96013800D01*
X113172700Y-110102800D01*
X113172700Y-128676600D01*
X115712700Y-131216600D01*
X115712700Y-144511900D01*
X107021100Y-144511900D01*
X107021100Y-103832200D01*
X109442100Y-103832200D01*
X109442100Y-55334100D01*
X115196800Y-55334100D01*
X115196800Y-94386600D01*
G37*
G36*
X121705500Y-48230000D02*
G01*
X125515500Y-48230000D01*
X125515500Y-52476600D01*
X123610500Y-52476600D01*
X123610500Y-55334100D01*
X109481800Y-55334100D01*
X109442100Y-55373800D01*
X109442100Y-45015300D01*
X114641100Y-45015300D01*
X114641100Y-48190300D01*
X119244900Y-48190300D01*
X119244900Y-44181900D01*
X115196800Y-44181900D01*
X115196800Y-38903500D01*
X121705500Y-38903500D01*
X121705500Y-48230000D01*
G37*
G36*
X135238900Y-39101900D02*
G01*
X135238900Y-44777200D01*
X132540200Y-44777200D01*
X132540200Y-39062200D01*
X135199300Y-39062200D01*
X135238900Y-39101900D01*
G37*
G36*
X165044300Y-44935900D02*
G01*
X172465800Y-44935900D01*
X172465800Y-143837200D01*
X170838600Y-143837200D01*
X170838600Y-103554400D01*
X165203000Y-103554400D01*
X165203000Y-46007500D01*
X147303900Y-46007500D01*
X147303900Y-44697800D01*
X145359300Y-44697800D01*
X145359300Y-41125900D01*
X135119900Y-41125900D01*
X135041000Y-38947000D01*
X147343600Y-38943100D01*
X147581800Y-38705000D01*
X147581800Y-38625600D01*
X165044300Y-38625600D01*
X165044300Y-44935900D01*
G37*
G36*
X134961100Y-39141600D02*
G01*
X134881800Y-39141600D01*
X134961100Y-39101900D01*
X134961100Y-39141600D01*
G37*
D18*
X117374600Y-141773500D02*
G75*
G03*
X117374600Y-141773500I-312500J0D01*
G01*
X117374600Y-137923800D02*
G75*
G03*
X117374600Y-137923800I-312500J0D01*
G01*
X118644600Y-139868500D02*
G75*
G03*
X118644600Y-139868500I-312500J0D01*
G01*
X119874900Y-141773500D02*
G75*
G03*
X119874900Y-141773500I-312500J0D01*
G01*
X118724000Y-136018800D02*
G75*
G03*
X118724000Y-136018800I-312500J0D01*
G01*
X119914600Y-137923800D02*
G75*
G03*
X119914600Y-137923800I-312500J0D01*
G01*
X121184600Y-139828800D02*
G75*
G03*
X121184600Y-139828800I-312500J0D01*
G01*
X122454600Y-141773500D02*
G75*
G03*
X122454600Y-141773500I-312500J0D01*
G01*
X121184600Y-136018800D02*
G75*
G03*
X121184600Y-136018800I-312500J0D01*
G01*
X122375200Y-137923800D02*
G75*
G03*
X122375200Y-137923800I-312500J0D01*
G01*
X123645200Y-139828800D02*
G75*
G03*
X123645200Y-139828800I-312500J0D01*
G01*
X124915200Y-141773500D02*
G75*
G03*
X124915200Y-141773500I-312500J0D01*
G01*
X123684900Y-136018800D02*
G75*
G03*
X123684900Y-136018800I-312500J0D01*
G01*
X124875500Y-137923800D02*
G75*
G03*
X124875500Y-137923800I-312500J0D01*
G01*
X126145500Y-139828800D02*
G75*
G03*
X126145500Y-139828800I-312500J0D01*
G01*
X127415500Y-141773500D02*
G75*
G03*
X127415500Y-141773500I-312500J0D01*
G01*
X126264600Y-136018800D02*
G75*
G03*
X126264600Y-136018800I-312500J0D01*
G01*
X127455200Y-137923800D02*
G75*
G03*
X127455200Y-137923800I-312500J0D01*
G01*
X128725200Y-139828800D02*
G75*
G03*
X128725200Y-139828800I-312500J0D01*
G01*
X129995200Y-141773500D02*
G75*
G03*
X129995200Y-141773500I-312500J0D01*
G01*
X128725200Y-136018800D02*
G75*
G03*
X128725200Y-136018800I-312500J0D01*
G01*
X129915800Y-137923800D02*
G75*
G03*
X129915800Y-137923800I-312500J0D01*
G01*
X131185800Y-139828800D02*
G75*
G03*
X131185800Y-139828800I-312500J0D01*
G01*
X132455800Y-141773500D02*
G75*
G03*
X132455800Y-141773500I-312500J0D01*
G01*
X131225500Y-136018800D02*
G75*
G03*
X131225500Y-136018800I-312500J0D01*
G01*
X132416100Y-137923800D02*
G75*
G03*
X132416100Y-137923800I-312500J0D01*
G01*
X133686100Y-139828800D02*
G75*
G03*
X133686100Y-139828800I-312500J0D01*
G01*
X134956100Y-141773500D02*
G75*
G03*
X134956100Y-141773500I-312500J0D01*
G01*
X133924300Y-136018800D02*
G75*
G03*
X133924300Y-136018800I-312500J0D01*
G01*
X135114900Y-137923800D02*
G75*
G03*
X135114900Y-137923800I-312500J0D01*
G01*
X136384900Y-139828800D02*
G75*
G03*
X136384900Y-139828800I-312500J0D01*
G01*
X137654900Y-141773500D02*
G75*
G03*
X137654900Y-141773500I-312500J0D01*
G01*
X136384900Y-136018800D02*
G75*
G03*
X136384900Y-136018800I-312500J0D01*
G01*
X137575500Y-137923800D02*
G75*
G03*
X137575500Y-137923800I-312500J0D01*
G01*
X138845500Y-139828800D02*
G75*
G03*
X138845500Y-139828800I-312500J0D01*
G01*
X140115500Y-141773500D02*
G75*
G03*
X140115500Y-141773500I-312500J0D01*
G01*
X138885200Y-136018800D02*
G75*
G03*
X138885200Y-136018800I-312500J0D01*
G01*
X140075800Y-137923800D02*
G75*
G03*
X140075800Y-137923800I-312500J0D01*
G01*
X141345800Y-139828800D02*
G75*
G03*
X141345800Y-139828800I-312500J0D01*
G01*
X142615800Y-141773500D02*
G75*
G03*
X142615800Y-141773500I-312500J0D01*
G01*
X141544300Y-136018800D02*
G75*
G03*
X141544300Y-136018800I-312500J0D01*
G01*
X142734900Y-137923800D02*
G75*
G03*
X142734900Y-137923800I-312500J0D01*
G01*
X144004900Y-139828800D02*
G75*
G03*
X144004900Y-139828800I-312500J0D01*
G01*
X145274900Y-141773500D02*
G75*
G03*
X145274900Y-141773500I-312500J0D01*
G01*
X144004900Y-136018800D02*
G75*
G03*
X144004900Y-136018800I-312500J0D01*
G01*
X145195500Y-137923800D02*
G75*
G03*
X145195500Y-137923800I-312500J0D01*
G01*
X146465500Y-139828800D02*
G75*
G03*
X146465500Y-139828800I-312500J0D01*
G01*
X147735500Y-141773500D02*
G75*
G03*
X147735500Y-141773500I-312500J0D01*
G01*
X146505200Y-136018800D02*
G75*
G03*
X146505200Y-136018800I-312500J0D01*
G01*
X147695800Y-137923800D02*
G75*
G03*
X147695800Y-137923800I-312500J0D01*
G01*
X148965800Y-139828800D02*
G75*
G03*
X148965800Y-139828800I-312500J0D01*
G01*
X150235800Y-141773500D02*
G75*
G03*
X150235800Y-141773500I-312500J0D01*
G01*
X149243600Y-136018800D02*
G75*
G03*
X149243600Y-136018800I-312500J0D01*
G01*
X150434300Y-137923800D02*
G75*
G03*
X150434300Y-137923800I-312500J0D01*
G01*
X151704300Y-139828800D02*
G75*
G03*
X151704300Y-139828800I-312500J0D01*
G01*
X152974300Y-141773500D02*
G75*
G03*
X152974300Y-141773500I-312500J0D01*
G01*
X151704300Y-136018800D02*
G75*
G03*
X151704300Y-136018800I-312500J0D01*
G01*
X152894900Y-137923800D02*
G75*
G03*
X152894900Y-137923800I-312500J0D01*
G01*
X154164900Y-139828800D02*
G75*
G03*
X154164900Y-139828800I-312500J0D01*
G01*
X155434900Y-141773500D02*
G75*
G03*
X155434900Y-141773500I-312500J0D01*
G01*
X154204600Y-136018800D02*
G75*
G03*
X154204600Y-136018800I-312500J0D01*
G01*
X155395200Y-137923800D02*
G75*
G03*
X155395200Y-137923800I-312500J0D01*
G01*
X156665200Y-139828800D02*
G75*
G03*
X156665200Y-139828800I-312500J0D01*
G01*
X157935200Y-141773500D02*
G75*
G03*
X157935200Y-141773500I-312500J0D01*
G01*
X156784300Y-136018800D02*
G75*
G03*
X156784300Y-136018800I-312500J0D01*
G01*
X158054300Y-137963500D02*
G75*
G03*
X158054300Y-137963500I-312500J0D01*
G01*
X159284600Y-139868500D02*
G75*
G03*
X159284600Y-139868500I-312500J0D01*
G01*
X159443300Y-136018800D02*
G75*
G03*
X159443300Y-136018800I-312500J0D01*
G01*
D19*
%TO.N,*%
X118962700Y-128439700D03*
X121542700Y-128479700D03*
X126662700Y-128479700D03*
X129162700Y-128519700D03*
X134322700Y-128559700D03*
X136862700Y-128559700D03*
X139362700Y-128559700D03*
X141942700Y-128639700D03*
X140912700Y-124429700D03*
X143252700Y-124189700D03*
X138892700Y-121849700D03*
X138892700Y-119589700D03*
X136862700Y-118789700D03*
X138612700Y-117249700D03*
X132302700Y-118989700D03*
X130242700Y-120299700D03*
X131782700Y-121569700D03*
X129962700Y-116409700D03*
X127742700Y-113599700D03*
X125392700Y-113869700D03*
X126702700Y-109389700D03*
X124122700Y-109349700D03*
X121582700Y-109349700D03*
X119042700Y-109349700D03*
X116502700Y-109349700D03*
X131822700Y-109389700D03*
X134362700Y-109429700D03*
X136902700Y-109469700D03*
X139402700Y-109469700D03*
X141982700Y-109469700D03*
X144562700Y-113949700D03*
X149642700Y-109509700D03*
X150952700Y-107009700D03*
X148412700Y-106329700D03*
X147782700Y-100539700D03*
X149052700Y-99349700D03*
X147182700Y-92959700D03*
X145912700Y-91649700D03*
X144602700Y-92919700D03*
X143332700Y-91649700D03*
X142062700Y-92919700D03*
X140832700Y-91569700D03*
X139482700Y-92879700D03*
X138252700Y-91649700D03*
X136942700Y-92839700D03*
X135712700Y-91529700D03*
X134402700Y-92879700D03*
X133172700Y-91609700D03*
X131782700Y-92839700D03*
X129962700Y-92839700D03*
X128652700Y-91489700D03*
X127302700Y-92799700D03*
X126112700Y-91529700D03*
X124802700Y-92799700D03*
X136312700Y-97359700D03*
X148532700Y-91689700D03*
X147782700Y-85849700D03*
X147822700Y-81449700D03*
X143332700Y-78149700D03*
X142062700Y-76249700D03*
X144602700Y-75019700D03*
X151672700Y-69259700D03*
X155562700Y-69859700D03*
X156792700Y-67319700D03*
X158102700Y-57119700D03*
X147222700Y-49339700D03*
X170242700Y-50099700D03*
X161832700Y-88549700D03*
X161152700Y-98119700D03*
X153492700Y-116569700D03*
X154762700Y-119149700D03*
X150282700Y-131179700D03*
X147062700Y-129909700D03*
X136982700Y-81959700D03*
D20*
X115432700Y-126569700D03*
X117972700Y-126569700D03*
X120512700Y-126569700D03*
X123052700Y-126569700D03*
X125592700Y-126569700D03*
X128132700Y-126569700D03*
X130672700Y-126569700D03*
X133212700Y-126569700D03*
X135752700Y-126569700D03*
X138292700Y-126569700D03*
X140832700Y-126569700D03*
X143372700Y-126569700D03*
X145912700Y-126569700D03*
X148452700Y-126569700D03*
X150992700Y-126569700D03*
X153532700Y-126569700D03*
X153532700Y-111329700D03*
X150992700Y-111329700D03*
X148452700Y-111329700D03*
X145912700Y-111329700D03*
X143372700Y-111329700D03*
X140832700Y-111329700D03*
X138292700Y-111329700D03*
X135752700Y-111329700D03*
X133212700Y-111329700D03*
X130672700Y-111329700D03*
X128132700Y-111329700D03*
X125592700Y-111329700D03*
X123052700Y-111329700D03*
X120512700Y-111329700D03*
X117972700Y-111329700D03*
X115432700Y-111329700D03*
X125592700Y-78059700D03*
X125592700Y-75519700D03*
X125592700Y-72979700D03*
X125592700Y-70439700D03*
X125592700Y-67899700D03*
X125592700Y-65359700D03*
X125592700Y-62819700D03*
X125592700Y-60279700D03*
X125592700Y-57739700D03*
X125592700Y-55199700D03*
X133212700Y-55199700D03*
X133212700Y-57739700D03*
X133212700Y-60279700D03*
X133212700Y-62819700D03*
X133212700Y-65359700D03*
X133212700Y-67899700D03*
X133212700Y-70439700D03*
X133212700Y-72979700D03*
X133212700Y-75519700D03*
X133212700Y-78059700D03*
X139602700Y-78059700D03*
X139602700Y-75519700D03*
X139602700Y-72979700D03*
X139602700Y-70439700D03*
X139602700Y-67899700D03*
X139602700Y-65359700D03*
X139602700Y-62819700D03*
X139602700Y-60279700D03*
X139602700Y-57739700D03*
X139602700Y-55199700D03*
X147222700Y-55199700D03*
X147222700Y-57739700D03*
X147222700Y-60279700D03*
X147222700Y-62819700D03*
X147222700Y-65359700D03*
X147222700Y-67899700D03*
X147222700Y-70439700D03*
X147222700Y-72979700D03*
X147222700Y-75519700D03*
X147222700Y-78059700D03*
X153652700Y-78019700D03*
X153652700Y-75479700D03*
X153652700Y-72939700D03*
X153652700Y-70399700D03*
X153652700Y-67859700D03*
X153652700Y-65319700D03*
X153652700Y-62779700D03*
X153652700Y-60239700D03*
X153652700Y-57699700D03*
X153652700Y-55159700D03*
X153652700Y-52619700D03*
X153652700Y-50079700D03*
X161272700Y-50079700D03*
X161272700Y-52619700D03*
X161272700Y-55159700D03*
X161272700Y-57699700D03*
X161272700Y-60239700D03*
X161272700Y-62779700D03*
X161272700Y-65319700D03*
X161272700Y-67859700D03*
X161272700Y-70399700D03*
X161272700Y-72939700D03*
X161272700Y-75479700D03*
X161272700Y-78019700D03*
D21*
X117062700Y-141769700D03*
X118332700Y-139869700D03*
X119562700Y-141769700D03*
X120872700Y-139829700D03*
X122062700Y-137919700D03*
X120872700Y-136019700D03*
X119602700Y-137919700D03*
X118412700Y-136019700D03*
X117062700Y-137919700D03*
X122142700Y-141769700D03*
X123332700Y-139829700D03*
X124562700Y-137919700D03*
X123372700Y-136019700D03*
X125952700Y-136019700D03*
X127142700Y-137919700D03*
X128412700Y-139829700D03*
X129602700Y-137919700D03*
X128412700Y-136019700D03*
X130912700Y-136019700D03*
X132102700Y-137919700D03*
X130872700Y-139829700D03*
X129682700Y-141769700D03*
X132142700Y-141769700D03*
X133372700Y-139829700D03*
X134642700Y-141769700D03*
X136072700Y-139829700D03*
X137262700Y-137919700D03*
X136072700Y-136019700D03*
X134802700Y-137919700D03*
X133612700Y-136019700D03*
X138572700Y-136019700D03*
X139762700Y-137919700D03*
X138532700Y-139829700D03*
X137342700Y-141769700D03*
X139802700Y-141769700D03*
X141032700Y-139829700D03*
X142302700Y-141769700D03*
X143692700Y-139829700D03*
X144882700Y-137919700D03*
X143692700Y-136019700D03*
X142422700Y-137919700D03*
X141232700Y-136019700D03*
X146192700Y-136019700D03*
X147382700Y-137919700D03*
X146152700Y-139829700D03*
X144962700Y-141769700D03*
X147422700Y-141769700D03*
X148652700Y-139829700D03*
X149922700Y-141769700D03*
X151392700Y-139829700D03*
X152582700Y-137919700D03*
X151392700Y-136019700D03*
X150122700Y-137919700D03*
X148932700Y-136019700D03*
X153892700Y-136019700D03*
X155082700Y-137919700D03*
X153852700Y-139829700D03*
X152662700Y-141769700D03*
X155122700Y-141769700D03*
X156352700Y-139829700D03*
X157622700Y-141769700D03*
X158972700Y-139869700D03*
X157742700Y-137959700D03*
X156472700Y-136019700D03*
X159132700Y-136019700D03*
X127102700Y-141769700D03*
X125832700Y-139829700D03*
X124602700Y-141769700D03*
D22*
X157302700Y-126809700D03*
X157302700Y-121689700D03*
X163692700Y-106369700D03*
X166312700Y-106369700D03*
X168892700Y-106369700D03*
X154132700Y-103039700D03*
X154212700Y-97959700D03*
X153572700Y-81959700D03*
X158652700Y-81959700D03*
X144642700Y-81999700D03*
X139522700Y-81959700D03*
X130592700Y-82039700D03*
X125472700Y-82079700D03*
X125512700Y-46209700D03*
X123692700Y-46209700D03*
X125552700Y-43629700D03*
X129402700Y-43629700D03*
X129402700Y-46209700D03*
X117262700Y-46209700D03*
X144012700Y-51249700D03*
X150442700Y-51249700D03*
D23*
X119932700Y-91499700D03*
X119932700Y-88729700D03*
X119932700Y-85969700D03*
X119932700Y-83199700D03*
X119932700Y-80429700D03*
X119932700Y-77659700D03*
X119932700Y-74889700D03*
X119932700Y-72119700D03*
X119932700Y-69349700D03*
X119932700Y-66589700D03*
X119932700Y-63819700D03*
X119932700Y-61049700D03*
X119932700Y-58279700D03*
X117092700Y-59649700D03*
X117092700Y-62419700D03*
X117092700Y-65189700D03*
X117092700Y-67959700D03*
X117092700Y-70729700D03*
X117092700Y-73489700D03*
X117092700Y-76259700D03*
X117092700Y-79029700D03*
X117092700Y-81799700D03*
X117092700Y-84569700D03*
X117092700Y-87339700D03*
X117092700Y-90109700D03*
D24*
X133852700Y-43589700D03*
X137142700Y-43589700D03*
X140282700Y-43589700D03*
X143292700Y-43589700D03*
X146592700Y-43589700D03*
D25*
X164052700Y-129709700D03*
D26*
X112062700Y-139229700D03*
X118692700Y-98469700D03*
X118612700Y-51129700D03*
X164092700Y-139189700D03*
%TD*%
D27*
%TO.N,*%
X147264300Y-55294400D02*
X147264300Y-49420600D01*
X147264300Y-49420600D02*
X147184900Y-49341300D01*
X158138600Y-57080300D02*
X158138600Y-63549400D01*
X158138600Y-63549400D02*
X159845200Y-65255900D01*
X159845200Y-65255900D02*
X161353300Y-65255900D01*
X161353300Y-65255900D02*
X161432700Y-65335300D01*
X161353300Y-52635300D02*
X159646800Y-52635300D01*
X159646800Y-52635300D02*
X156749600Y-55532500D01*
X156749600Y-55532500D02*
X156749600Y-63470000D01*
X156749600Y-63470000D02*
X158019600Y-64740000D01*
X158019600Y-64740000D02*
X158019600Y-67915000D01*
X158019600Y-67915000D02*
X156789300Y-69145300D01*
X156789300Y-69145300D02*
X154169900Y-66525900D01*
X154169900Y-66525900D02*
X152423600Y-66525900D01*
X152423600Y-66525900D02*
X149804300Y-69145300D01*
X149804300Y-69145300D02*
X149804300Y-89147800D01*
X149804300Y-89147800D02*
X150994900Y-90338500D01*
X150994900Y-90338500D02*
X150994900Y-92838800D01*
X150994900Y-92838800D02*
X149764600Y-94069100D01*
X149764600Y-94069100D02*
X149764600Y-97125000D01*
X149764600Y-97125000D02*
X149050200Y-97839400D01*
X149050200Y-97839400D02*
X149050200Y-99347500D01*
X149050200Y-99347500D02*
X149089900Y-99387200D01*
X154209600Y-97958500D02*
X160877100Y-97958500D01*
X160877100Y-97958500D02*
X160956500Y-98037800D01*
X156749600Y-69105600D02*
X156749600Y-74304700D01*
X156749600Y-74304700D02*
X154249300Y-76805000D01*
X154249300Y-76805000D02*
X152979300Y-76805000D01*
X152979300Y-76805000D02*
X152304600Y-77479700D01*
X152304600Y-77479700D02*
X152304600Y-86488800D01*
X152304600Y-86488800D02*
X153534900Y-87719100D01*
X153534900Y-87719100D02*
X153534900Y-95180300D01*
X153534900Y-95180300D02*
X152225200Y-96490000D01*
X152225200Y-96490000D02*
X152225200Y-103594100D01*
X152225200Y-103594100D02*
X156114600Y-107483500D01*
X156114600Y-107483500D02*
X156114600Y-133994700D01*
X156114600Y-133994700D02*
X153971500Y-136137800D01*
D28*
X135675500Y-111412500D02*
X135675500Y-106213500D01*
X135675500Y-106213500D02*
X140795200Y-101093800D01*
X140795200Y-101093800D02*
X140795200Y-91687800D01*
X140795200Y-91687800D02*
X140953900Y-91529100D01*
X142065200Y-92878500D02*
X142065200Y-101133500D01*
X142065200Y-101133500D02*
X138215500Y-104983100D01*
X138215500Y-104983100D02*
X138215500Y-113873100D01*
X138215500Y-113873100D02*
X135913600Y-116175000D01*
X135913600Y-116175000D02*
X135913600Y-124866600D01*
X135913600Y-124866600D02*
X136985200Y-125938100D01*
X136985200Y-125938100D02*
X136985200Y-128597200D01*
X136985200Y-128597200D02*
X136945500Y-128636900D01*
X134326100Y-128676600D02*
X134326100Y-126215900D01*
X134326100Y-126215900D02*
X134881800Y-125660300D01*
X134881800Y-125660300D02*
X134881800Y-115698800D01*
X134881800Y-115698800D02*
X135675500Y-114905000D01*
X135675500Y-114905000D02*
X135675500Y-111372800D01*
X135675500Y-111372800D02*
X135754900Y-111293500D01*
X136945500Y-109467800D02*
X136945500Y-114428800D01*
X136945500Y-114428800D02*
X135397700Y-115976600D01*
X135397700Y-115976600D02*
X135397700Y-126414400D01*
X135397700Y-126414400D02*
X135635800Y-126652500D01*
X135635800Y-126652500D02*
X135635800Y-129192500D01*
X135635800Y-129192500D02*
X139961800Y-133518500D01*
X139961800Y-133518500D02*
X139961800Y-136614100D01*
X139961800Y-136614100D02*
X141192100Y-137844400D01*
X141192100Y-137844400D02*
X141192100Y-138400000D01*
X141192100Y-138400000D02*
X142501800Y-139709700D01*
X142501800Y-139709700D02*
X142501800Y-140265300D01*
X142501800Y-140265300D02*
X144208300Y-141971900D01*
X144208300Y-141971900D02*
X145160800Y-141971900D01*
X145160800Y-141971900D02*
X145240200Y-142051300D01*
X133175200Y-126612800D02*
X133175200Y-126573100D01*
X133175200Y-126573100D02*
X134365800Y-125382500D01*
X134365800Y-125382500D02*
X134365800Y-109388500D01*
X134365800Y-109388500D02*
X134405500Y-109348800D01*
X131825800Y-109348800D02*
X131825800Y-112245900D01*
X131825800Y-112245900D02*
X133333900Y-113754100D01*
X133333900Y-113754100D02*
X133333900Y-123437800D01*
X133333900Y-123437800D02*
X130278000Y-126493800D01*
X126666500Y-128517800D02*
X126666500Y-126255600D01*
X126666500Y-126255600D02*
X130317700Y-122604400D01*
X130317700Y-122604400D02*
X130317700Y-118278500D01*
X130317700Y-118278500D02*
X131309900Y-117286300D01*
X131309900Y-117286300D02*
X131309900Y-115540000D01*
X131309900Y-115540000D02*
X128095200Y-112325300D01*
X128095200Y-112325300D02*
X128095200Y-111372800D01*
X128095200Y-111372800D02*
X128253900Y-111214100D01*
X127738000Y-113555600D02*
X127738000Y-113674700D01*
X127738000Y-113674700D02*
X130039900Y-115976600D01*
X130039900Y-115976600D02*
X130039900Y-116651300D01*
X150994900Y-126771600D02*
X150994900Y-115143100D01*
X150994900Y-115143100D02*
X152225200Y-113912800D01*
X152225200Y-113912800D02*
X152225200Y-105578500D01*
X152225200Y-105578500D02*
X151629900Y-104983100D01*
X151629900Y-104983100D02*
X151629900Y-96053500D01*
X151629900Y-96053500D02*
X152939600Y-94743800D01*
X152939600Y-94743800D02*
X152939600Y-88354100D01*
X152939600Y-88354100D02*
X151629900Y-87044400D01*
X151629900Y-87044400D02*
X151629900Y-76170000D01*
X151629900Y-76170000D02*
X152225200Y-75574700D01*
X152225200Y-75574700D02*
X153693600Y-75574700D01*
X153693600Y-75574700D02*
X153733300Y-75614400D01*
X153852400Y-75654100D02*
X154090500Y-75654100D01*
X154090500Y-75654100D02*
X155558900Y-74185600D01*
X155558900Y-74185600D02*
X155558900Y-69820000D01*
X155558900Y-69820000D02*
X155638300Y-69740600D01*
X151550500Y-69304100D02*
X151550500Y-69383500D01*
X151550500Y-69383500D02*
X150359900Y-70574100D01*
X150359900Y-70574100D02*
X150359900Y-88314400D01*
X150359900Y-88314400D02*
X151669600Y-89624100D01*
X151669600Y-89624100D02*
X151669600Y-93473800D01*
X151669600Y-93473800D02*
X150359900Y-94783500D01*
X150359900Y-94783500D02*
X150359900Y-104229100D01*
X150359900Y-104229100D02*
X148335800Y-106253100D01*
X150994900Y-106888100D02*
X150994900Y-95418500D01*
X150994900Y-95418500D02*
X152304600Y-94108800D01*
X152304600Y-94108800D02*
X152304600Y-89068500D01*
X152304600Y-89068500D02*
X150994900Y-87758800D01*
X150994900Y-87758800D02*
X150994900Y-71804400D01*
X150994900Y-71804400D02*
X152344300Y-70455000D01*
X152344300Y-70455000D02*
X153812700Y-70455000D01*
X153812700Y-70455000D02*
X153852400Y-70415300D01*
X147145200Y-73034700D02*
X147819900Y-73034700D01*
X147819900Y-73034700D02*
X148534300Y-72320300D01*
X148534300Y-72320300D02*
X148534300Y-61485600D01*
X148534300Y-61485600D02*
X152344300Y-57675600D01*
X152344300Y-57675600D02*
X153653900Y-57675600D01*
X153653900Y-57675600D02*
X153812700Y-57834400D01*
X147303900Y-57794700D02*
X145279900Y-57794700D01*
X145279900Y-57794700D02*
X142223900Y-60850600D01*
X142223900Y-60850600D02*
X142223900Y-76130300D01*
X142223900Y-76130300D02*
X142104900Y-76249400D01*
X143374900Y-78154400D02*
X143374900Y-78114700D01*
X143374900Y-78114700D02*
X144009900Y-77479700D01*
X144009900Y-77479700D02*
X144009900Y-76170000D01*
X144009900Y-76170000D02*
X143374900Y-75535000D01*
X143374900Y-75535000D02*
X143374900Y-67875300D01*
X143374900Y-67875300D02*
X145875200Y-65375000D01*
X145875200Y-65375000D02*
X147343600Y-65375000D01*
X147343600Y-65375000D02*
X147383300Y-65335300D01*
X147303900Y-67994400D02*
X145914900Y-67994400D01*
X145914900Y-67994400D02*
X144724300Y-69185000D01*
X144724300Y-69185000D02*
X144724300Y-75019100D01*
X144724300Y-75019100D02*
X144525800Y-75217500D01*
X144724300Y-81885000D02*
X144724300Y-81845300D01*
X144724300Y-81845300D02*
X147224600Y-79345000D01*
X147224600Y-79345000D02*
X147224600Y-78114700D01*
X147224600Y-78114700D02*
X147303900Y-78035300D01*
X139485500Y-81924700D02*
X140160200Y-81924700D01*
X140160200Y-81924700D02*
X140874600Y-81210300D01*
X140874600Y-81210300D02*
X140874600Y-54460900D01*
X140874600Y-54460900D02*
X144168600Y-51166900D01*
X156789300Y-67399100D02*
X156789300Y-65414700D01*
X156789300Y-65414700D02*
X155439900Y-64065300D01*
X155439900Y-64065300D02*
X151074300Y-64065300D01*
X151074300Y-64065300D02*
X149129600Y-66010000D01*
X149129600Y-66010000D02*
X149129600Y-89663800D01*
X149129600Y-89663800D02*
X150399600Y-90933800D01*
X150399600Y-90933800D02*
X150399600Y-92243500D01*
X150399600Y-92243500D02*
X149129600Y-93513500D01*
X149129600Y-93513500D02*
X149129600Y-96013800D01*
X149129600Y-96013800D02*
X147780200Y-97363100D01*
X147780200Y-97363100D02*
X147780200Y-100458800D01*
X147780200Y-100458800D02*
X147899300Y-100577800D01*
X147859600Y-85814100D02*
X147859600Y-81369100D01*
X147859600Y-81369100D02*
X147819900Y-81329400D01*
X116546100Y-109428100D02*
X116546100Y-113912800D01*
X116546100Y-113912800D02*
X115236500Y-115222500D01*
X115236500Y-115222500D02*
X115236500Y-129390900D01*
X115236500Y-129390900D02*
X120276800Y-134431300D01*
X120276800Y-134431300D02*
X121030800Y-134431300D01*
X121030800Y-134431300D02*
X121943600Y-135344100D01*
X121943600Y-135344100D02*
X121943600Y-136296600D01*
X121943600Y-136296600D02*
X123293000Y-137645900D01*
X123293000Y-137645900D02*
X123293000Y-138241300D01*
X123293000Y-138241300D02*
X124563000Y-139511300D01*
X124563000Y-139511300D02*
X124563000Y-142130600D01*
X124563000Y-142130600D02*
X124523300Y-142170300D01*
X124642400Y-138042800D02*
X124642400Y-135820300D01*
X124642400Y-135820300D02*
X122459600Y-133637500D01*
X122459600Y-133637500D02*
X120673600Y-133637500D01*
X120673600Y-133637500D02*
X116506500Y-129470300D01*
X116506500Y-129470300D02*
X116506500Y-115341600D01*
X116506500Y-115341600D02*
X117895500Y-113952500D01*
X117895500Y-113952500D02*
X117895500Y-111372800D01*
X117895500Y-111372800D02*
X118014600Y-111253800D01*
X119046500Y-109388500D02*
X119046500Y-113952500D01*
X119046500Y-113952500D02*
X117816100Y-115182800D01*
X117816100Y-115182800D02*
X117816100Y-129152800D01*
X117816100Y-129152800D02*
X121308600Y-132645300D01*
X121308600Y-132645300D02*
X123015200Y-132645300D01*
X123015200Y-132645300D02*
X125753600Y-135383800D01*
X125753600Y-135383800D02*
X125753600Y-136177500D01*
X125753600Y-136177500D02*
X126031500Y-136455300D01*
X119006800Y-128597200D02*
X119006800Y-115381300D01*
X119006800Y-115381300D02*
X120435500Y-113952500D01*
X120435500Y-113952500D02*
X120435500Y-111293500D01*
X120435500Y-111293500D02*
X120554600Y-111174400D01*
X120435500Y-111174400D02*
X120435500Y-107483500D01*
X120435500Y-107483500D02*
X133175200Y-94743800D01*
X133175200Y-94743800D02*
X133175200Y-86330000D01*
X133175200Y-86330000D02*
X135080200Y-84425000D01*
X135080200Y-84425000D02*
X135080200Y-61763500D01*
X135080200Y-61763500D02*
X133453000Y-60136300D01*
X133056100Y-57794700D02*
X133889600Y-57794700D01*
X133889600Y-57794700D02*
X135754900Y-59660000D01*
X135754900Y-59660000D02*
X135754900Y-85020300D01*
X135754900Y-85020300D02*
X134405500Y-86369700D01*
X134405500Y-86369700D02*
X134405500Y-94862800D01*
X134405500Y-94862800D02*
X122935800Y-106332500D01*
X122935800Y-106332500D02*
X122935800Y-113952500D01*
X122935800Y-113952500D02*
X121586500Y-115301900D01*
X121586500Y-115301900D02*
X121586500Y-128597200D01*
X121586500Y-128597200D02*
X121546800Y-128636900D01*
X122935800Y-126652500D02*
X122935800Y-115262200D01*
X122935800Y-115262200D02*
X124205800Y-113992200D01*
X124205800Y-113992200D02*
X124205800Y-109348800D01*
X124205800Y-109348800D02*
X124086800Y-109229700D01*
X126706100Y-109229700D02*
X126706100Y-114150900D01*
X126706100Y-114150900D02*
X125436100Y-115420900D01*
X125436100Y-115420900D02*
X125436100Y-126454100D01*
X125436100Y-126454100D02*
X125515500Y-126533500D01*
X127777700Y-126335000D02*
X127936500Y-126335000D01*
X127936500Y-126335000D02*
X131905200Y-122366300D01*
X131905200Y-122366300D02*
X131905200Y-121612200D01*
X131905200Y-121612200D02*
X131270200Y-120977200D01*
X131270200Y-120977200D02*
X131270200Y-117921300D01*
X131270200Y-117921300D02*
X131786100Y-117405300D01*
X131786100Y-117405300D02*
X131786100Y-114785900D01*
X131786100Y-114785900D02*
X129246100Y-112245900D01*
X129246100Y-112245900D02*
X129246100Y-104427500D01*
X129246100Y-104427500D02*
X136508900Y-97164700D01*
X128015800Y-111333100D02*
X128015800Y-103752800D01*
X128015800Y-103752800D02*
X136985200Y-94783500D01*
X136985200Y-94783500D02*
X136985200Y-92838800D01*
X136985200Y-92838800D02*
X137064600Y-92759400D01*
X135675500Y-91410000D02*
X135675500Y-94823100D01*
X135675500Y-94823100D02*
X125356800Y-105141900D01*
X125356800Y-105141900D02*
X125356800Y-111095000D01*
X125356800Y-111095000D02*
X125436100Y-111174400D01*
X125436100Y-111174400D02*
X125436100Y-114071600D01*
X125436100Y-114071600D02*
X124166100Y-115341600D01*
X124166100Y-115341600D02*
X124166100Y-128597200D01*
X124166100Y-128597200D02*
X128214300Y-132645300D01*
X128214300Y-132645300D02*
X131905200Y-132645300D01*
X131905200Y-132645300D02*
X133572100Y-134312200D01*
X133572100Y-134312200D02*
X133572100Y-136296600D01*
X133572100Y-136296600D02*
X133532400Y-136336300D01*
X138413900Y-126454100D02*
X138413900Y-126215900D01*
X138413900Y-126215900D02*
X136866100Y-124668100D01*
X136866100Y-124668100D02*
X136866100Y-116611600D01*
X136866100Y-116611600D02*
X139564900Y-113912800D01*
X139564900Y-113912800D02*
X139564900Y-109348800D01*
X139564900Y-109348800D02*
X139445800Y-109229700D01*
X142025500Y-109348800D02*
X142025500Y-113912800D01*
X142025500Y-113912800D02*
X140715800Y-115222500D01*
X140715800Y-115222500D02*
X140715800Y-117484700D01*
X140715800Y-117484700D02*
X138691800Y-119508800D01*
X138691800Y-119508800D02*
X138691800Y-119707200D01*
X138691800Y-119707200D02*
X137977400Y-120421600D01*
X137977400Y-120421600D02*
X137977400Y-123517200D01*
X137977400Y-123517200D02*
X140755500Y-126295300D01*
X140755500Y-126295300D02*
X140755500Y-129271900D01*
X140755500Y-129271900D02*
X143692400Y-132208800D01*
X143692400Y-132208800D02*
X143692400Y-136256900D01*
X143692400Y-136256900D02*
X143811500Y-136375900D01*
X141112700Y-124549100D02*
X141112700Y-124271300D01*
X141112700Y-124271300D02*
X138731500Y-121890000D01*
X129285800Y-128636900D02*
X129285800Y-126096900D01*
X129285800Y-126096900D02*
X132698900Y-122683800D01*
X132698900Y-122683800D02*
X132698900Y-119469100D01*
X132698900Y-119469100D02*
X132381500Y-119151600D01*
X132381500Y-119151600D02*
X132381500Y-114071600D01*
X132381500Y-114071600D02*
X130635200Y-112325300D01*
X130635200Y-112325300D02*
X130635200Y-111095000D01*
X130635200Y-111095000D02*
X130595500Y-111055300D01*
X130595500Y-111055300D02*
X130595500Y-108594700D01*
X130595500Y-108594700D02*
X138175800Y-101014400D01*
X138175800Y-101014400D02*
X138175800Y-91767200D01*
X138175800Y-91767200D02*
X138413900Y-91529100D01*
X139485500Y-93076900D02*
X139485500Y-101173100D01*
X139485500Y-101173100D02*
X133175200Y-107483500D01*
X133175200Y-107483500D02*
X133175200Y-112245900D01*
X133175200Y-112245900D02*
X133849900Y-112920600D01*
X133849900Y-112920600D02*
X133849900Y-124231600D01*
X133849900Y-124231600D02*
X131825800Y-126255600D01*
X131825800Y-126255600D02*
X131825800Y-129311600D01*
X131825800Y-129311600D02*
X137342400Y-134828100D01*
X137342400Y-134828100D02*
X137342400Y-136256900D01*
X137342400Y-136256900D02*
X136191500Y-137407800D01*
X136191500Y-137407800D02*
X136191500Y-138122200D01*
X136191500Y-138122200D02*
X134802400Y-139511300D01*
X134802400Y-139511300D02*
X134802400Y-141971900D01*
X134802400Y-141971900D02*
X134921500Y-142090900D01*
X138294900Y-126335000D02*
X138294900Y-129470300D01*
X138294900Y-129470300D02*
X142462100Y-133637500D01*
X142462100Y-133637500D02*
X142462100Y-136574400D01*
X142462100Y-136574400D02*
X143652700Y-137765000D01*
X143652700Y-137765000D02*
X143652700Y-139789100D01*
X143652700Y-139789100D02*
X143970200Y-140106600D01*
X146351500Y-140146300D02*
X146351500Y-138003100D01*
X146351500Y-138003100D02*
X145002100Y-136653800D01*
X145002100Y-136653800D02*
X145002100Y-132129400D01*
X145002100Y-132129400D02*
X143216100Y-130343500D01*
X143216100Y-130343500D02*
X143216100Y-115301900D01*
X143216100Y-115301900D02*
X144486100Y-114031900D01*
X141985800Y-128755900D02*
X141985800Y-115222500D01*
X141985800Y-115222500D02*
X143335200Y-113873100D01*
X143335200Y-113873100D02*
X143335200Y-102363800D01*
X143335200Y-102363800D02*
X144605200Y-101093800D01*
X144605200Y-101093800D02*
X144605200Y-93037200D01*
X144605200Y-93037200D02*
X144803600Y-92838800D01*
X143255800Y-91608500D02*
X143255800Y-101212800D01*
X143255800Y-101212800D02*
X140755500Y-103713100D01*
X140755500Y-103713100D02*
X140755500Y-113833500D01*
X140755500Y-113833500D02*
X138612400Y-115976600D01*
X138612400Y-115976600D02*
X138612400Y-117246600D01*
X138612400Y-117246600D02*
X137898000Y-117960900D01*
X137898000Y-117960900D02*
X137898000Y-119548500D01*
X137898000Y-119548500D02*
X137342400Y-120104100D01*
X137342400Y-120104100D02*
X137342400Y-124072800D01*
X137342400Y-124072800D02*
X139445800Y-126176300D01*
X139445800Y-126176300D02*
X139445800Y-128557500D01*
X139445800Y-128557500D02*
X139525200Y-128636900D01*
X125833000Y-140106600D02*
X125833000Y-137765000D01*
X125833000Y-137765000D02*
X127142700Y-136455300D01*
X127142700Y-136455300D02*
X127142700Y-134788500D01*
X127142700Y-134788500D02*
X124126500Y-131772200D01*
X124126500Y-131772200D02*
X122658000Y-131772200D01*
X122658000Y-131772200D02*
X120276800Y-129390900D01*
X120276800Y-129390900D02*
X120276800Y-115460600D01*
X120276800Y-115460600D02*
X121626100Y-114111300D01*
X121626100Y-114111300D02*
X121626100Y-109309100D01*
X121626100Y-109309100D02*
X121665800Y-109269400D01*
X117855800Y-111253800D02*
X117855800Y-108753500D01*
X117855800Y-108753500D02*
X131944900Y-94664400D01*
X131944900Y-94664400D02*
X131944900Y-86409400D01*
X131944900Y-86409400D02*
X134484900Y-83869400D01*
X134484900Y-83869400D02*
X134484900Y-63589100D01*
X134484900Y-63628800D02*
X134484900Y-63589100D01*
X134484900Y-63589100D02*
X133532400Y-62636600D01*
X129960500Y-92799100D02*
X129960500Y-85179100D01*
X129960500Y-85179100D02*
X129325500Y-84544100D01*
X129325500Y-84544100D02*
X129325500Y-81448500D01*
X129325500Y-81448500D02*
X130039900Y-80734100D01*
X130039900Y-80734100D02*
X130039900Y-78392500D01*
X130039900Y-78392500D02*
X132976800Y-75455600D01*
X133016500Y-72598100D02*
X132976800Y-72598100D01*
X132976800Y-72598100D02*
X129325500Y-76249400D01*
X129325500Y-76249400D02*
X129325500Y-80813500D01*
X129325500Y-80813500D02*
X128690500Y-81448500D01*
X128690500Y-81448500D02*
X128690500Y-91568800D01*
X127301500Y-92918100D02*
X127301500Y-88631900D01*
X127301500Y-88631900D02*
X128095200Y-87838100D01*
X128095200Y-87838100D02*
X128095200Y-81329400D01*
X128095200Y-81329400D02*
X128730200Y-80694400D01*
X128730200Y-80694400D02*
X128730200Y-74582500D01*
X128730200Y-74582500D02*
X132976800Y-70335900D01*
X130793900Y-82083500D02*
X133294300Y-79583100D01*
X133294300Y-79583100D02*
X133294300Y-77757500D01*
X133294300Y-77757500D02*
X133095800Y-77559100D01*
X133373600Y-67438800D02*
X133373600Y-67518100D01*
X133373600Y-67518100D02*
X128055500Y-72836300D01*
X128055500Y-72836300D02*
X128055500Y-80734100D01*
X128055500Y-80734100D02*
X127420500Y-81369100D01*
X127420500Y-81369100D02*
X127420500Y-87163500D01*
X127420500Y-87163500D02*
X126071100Y-88512800D01*
X126071100Y-88512800D02*
X126071100Y-91529100D01*
X126071100Y-91529100D02*
X126110800Y-91568800D01*
X124880500Y-92918100D02*
X124880500Y-88314400D01*
X124880500Y-88314400D02*
X126785500Y-86409400D01*
X126785500Y-86409400D02*
X126785500Y-81329400D01*
X126785500Y-81329400D02*
X127380800Y-80734100D01*
X127380800Y-80734100D02*
X127380800Y-70970900D01*
X127380800Y-70970900D02*
X133056100Y-65295600D01*
X129365200Y-46086900D02*
X129365200Y-66406900D01*
X129365200Y-66406900D02*
X126745800Y-69026300D01*
X126745800Y-69026300D02*
X126745800Y-80694400D01*
X126745800Y-80694400D02*
X125475800Y-81964400D01*
D29*
X125515500Y-82162800D02*
X125515500Y-78075000D01*
X125515500Y-78075000D02*
X125674300Y-77916300D01*
D28*
X125396500Y-43586600D02*
X134088000Y-43586600D01*
X134088000Y-43586600D02*
X134127700Y-43626300D01*
D29*
X117300200Y-70574100D02*
X113966500Y-70574100D01*
X113966500Y-70574100D02*
X113887100Y-70653500D01*
X117300200Y-73431600D02*
X113688600Y-73431600D01*
X113688600Y-73431600D02*
X113569600Y-73550600D01*
X117300200Y-76249400D02*
X113768000Y-76249400D01*
X113768000Y-76249400D02*
X113728300Y-76209700D01*
X117379600Y-78987800D02*
X113728300Y-78987800D01*
X113728300Y-78987800D02*
X113609300Y-78868800D01*
X117379600Y-81765900D02*
X113688600Y-81765900D01*
X113688600Y-81765900D02*
X113529900Y-81607200D01*
X117220800Y-84583800D02*
X113807700Y-84583800D01*
X113807700Y-84583800D02*
X113410800Y-84186900D01*
X117300200Y-87322200D02*
X112934600Y-87322200D01*
X112934600Y-87322200D02*
X112855200Y-87242800D01*
X117379600Y-90298800D02*
X112696500Y-90298800D01*
X112696500Y-90298800D02*
X112458300Y-90060600D01*
X137064600Y-43546900D02*
X137064600Y-83869400D01*
X137064600Y-83869400D02*
X137104300Y-83909100D01*
X137104300Y-83909100D02*
X144644900Y-83909100D01*
X144644900Y-83909100D02*
X144644900Y-82162800D01*
X144644900Y-82162800D02*
X144843300Y-81964400D01*
X139525200Y-82043800D02*
X139525200Y-77995600D01*
X139525200Y-77995600D02*
X139644300Y-77876600D01*
X139564900Y-81924700D02*
X139564900Y-81885000D01*
X139564900Y-81885000D02*
X138294900Y-80615000D01*
X138294900Y-80615000D02*
X138294900Y-51285900D01*
X138294900Y-51285900D02*
X144009900Y-51285900D01*
X144009900Y-51285900D02*
X144049600Y-51246300D01*
X144049600Y-51246300D02*
X144049600Y-47317200D01*
X144049600Y-47317200D02*
X144089300Y-47277500D01*
X144089300Y-47277500D02*
X163774300Y-47277500D01*
X163774300Y-47277500D02*
X163813900Y-47317200D01*
X163813900Y-47317200D02*
X163813900Y-106411900D01*
X163813900Y-106411900D02*
X163774300Y-106451600D01*
X153931800Y-102998800D02*
X163813900Y-102998800D01*
X163813900Y-93473800D02*
X159884900Y-93473800D01*
X159884900Y-93473800D02*
X159884900Y-84504400D01*
X159884900Y-84504400D02*
X153614300Y-84504400D01*
X153614300Y-84504400D02*
X153614300Y-78035300D01*
X158614900Y-81924700D02*
X161829600Y-81924700D01*
X161829600Y-81924700D02*
X161829600Y-88671600D01*
X157424300Y-126652500D02*
X158733900Y-126652500D01*
X158733900Y-126652500D02*
X163734600Y-121651900D01*
X163734600Y-121651900D02*
X163734600Y-106451600D01*
X163734600Y-106451600D02*
X163813900Y-106372200D01*
X168854300Y-106292800D02*
X168854300Y-143916600D01*
X168854300Y-143916600D02*
X168814600Y-143956300D01*
X168814600Y-143956300D02*
X138652100Y-143956300D01*
X138652100Y-143956300D02*
X138612400Y-143916600D01*
X138612400Y-143916600D02*
X138612400Y-136256900D01*
X116982700Y-142011600D02*
X114363300Y-142011600D01*
X114363300Y-142011600D02*
X114323600Y-141971900D01*
X117022400Y-138201600D02*
X114760200Y-138201600D01*
X114760200Y-138201600D02*
X114601500Y-138042800D01*
X166274600Y-106491300D02*
X166274600Y-99665000D01*
X166274600Y-99665000D02*
X166790500Y-99149100D01*
D28*
X146311800Y-136177500D02*
X146311800Y-132327800D01*
X146311800Y-132327800D02*
X144525800Y-130541900D01*
X144525800Y-130541900D02*
X144525800Y-115420900D01*
X144525800Y-115420900D02*
X145835500Y-114111300D01*
X145835500Y-114111300D02*
X145835500Y-109388500D01*
X145835500Y-109388500D02*
X145200500Y-108753500D01*
X145200500Y-108753500D02*
X145200500Y-94783500D01*
X145200500Y-94783500D02*
X145914900Y-94069100D01*
X145914900Y-94069100D02*
X145914900Y-91529100D01*
X145914900Y-91529100D02*
X145875200Y-91489400D01*
X147145200Y-92878500D02*
X147145200Y-94624700D01*
X147145200Y-94624700D02*
X145795800Y-95974100D01*
X145795800Y-95974100D02*
X145795800Y-107999400D01*
X145795800Y-107999400D02*
X147105500Y-109309100D01*
X147105500Y-109309100D02*
X147105500Y-113912800D01*
X147105500Y-113912800D02*
X145795800Y-115222500D01*
X145795800Y-115222500D02*
X145795800Y-130621300D01*
X145795800Y-130621300D02*
X147542100Y-132367500D01*
X147542100Y-132367500D02*
X147542100Y-138201600D01*
X147542100Y-138201600D02*
X147700800Y-138360300D01*
X148891500Y-136256900D02*
X148891500Y-129351300D01*
X148891500Y-129351300D02*
X149645500Y-128597200D01*
X149645500Y-128597200D02*
X149645500Y-115222500D01*
X149645500Y-115222500D02*
X150955200Y-113912800D01*
X150955200Y-113912800D02*
X150955200Y-108713800D01*
X150955200Y-108713800D02*
X149724900Y-107483500D01*
X149724900Y-107483500D02*
X147661100Y-107483500D01*
X147661100Y-107483500D02*
X146470500Y-106292800D01*
X146470500Y-106292800D02*
X146470500Y-97363100D01*
X146470500Y-97363100D02*
X148454900Y-95378800D01*
X148454900Y-95378800D02*
X148454900Y-91727500D01*
X148454900Y-91727500D02*
X148573900Y-91608500D01*
X150082100Y-138241300D02*
X150082100Y-133359700D01*
X150082100Y-133359700D02*
X154804900Y-128636900D01*
X154804900Y-128636900D02*
X154804900Y-119191300D01*
X153534900Y-116452800D02*
X153534900Y-116492500D01*
X153534900Y-116492500D02*
X152185500Y-117841900D01*
X152185500Y-117841900D02*
X152185500Y-129152800D01*
X152185500Y-129152800D02*
X150280500Y-131057800D01*
X147105500Y-129986300D02*
X147105500Y-115143100D01*
X147105500Y-115143100D02*
X148494600Y-113754100D01*
X148494600Y-113754100D02*
X148494600Y-111412500D01*
X148494600Y-111412500D02*
X148296100Y-111214100D01*
X149605800Y-109388500D02*
X149605800Y-113952500D01*
X149605800Y-113952500D02*
X148335800Y-115222500D01*
X148335800Y-115222500D02*
X148335800Y-126414400D01*
X148335800Y-126414400D02*
X148454900Y-126533500D01*
D29*
X115434900Y-111372800D02*
X112140800Y-111372800D01*
X112140800Y-111372800D02*
X111942400Y-111174400D01*
X137064600Y-55135600D02*
X133254600Y-55135600D01*
X133254600Y-55135600D02*
X133214900Y-55175300D01*
X114244300Y-45570900D02*
X115395200Y-45570900D01*
X115395200Y-45570900D02*
X115395200Y-43110300D01*
X115395200Y-43110300D02*
X116109600Y-42395900D01*
X125594900Y-43507200D02*
X125594900Y-39141600D01*
X125594900Y-39141600D02*
X119800500Y-39141600D01*
X119800500Y-39141600D02*
X119443300Y-39498800D01*
X125317100Y-39141600D02*
X137064600Y-39141600D01*
X137090300Y-39414700D02*
X137130000Y-39375000D01*
X137108000Y-39151000D02*
X137108000Y-43635700D01*
X137104300Y-43586600D02*
X137223300Y-43705600D01*
X129444600Y-43546900D02*
X129444600Y-39181300D01*
D30*
X106981500Y-144511900D02*
X115712700Y-144511900D01*
X115712700Y-144511900D02*
X115712700Y-131216600D01*
X115712700Y-131216600D02*
X113172700Y-128676600D01*
X113172700Y-128676600D02*
X113172700Y-110102800D01*
X113172700Y-110102800D02*
X127261800Y-96013800D01*
X127261800Y-96013800D02*
X127261800Y-94862800D01*
X127261800Y-94862800D02*
X123332700Y-94862800D01*
X123332700Y-94862800D02*
X123293000Y-94823100D01*
X123293000Y-94823100D02*
X123293000Y-94426300D01*
X123293000Y-94426300D02*
X123253300Y-94386600D01*
X123253300Y-94386600D02*
X115196800Y-94386600D01*
X115196800Y-94386600D02*
X115196800Y-55334100D01*
X115196800Y-55334100D02*
X109442100Y-55334100D01*
X109442100Y-55334100D02*
X109442100Y-103832200D01*
X109442100Y-103832200D02*
X107021100Y-103832200D01*
X107021100Y-103832200D02*
X107021100Y-144511900D01*
X107021100Y-144511900D02*
X106981500Y-144511900D01*
X109442100Y-55373800D02*
X109442100Y-45015300D01*
X109442100Y-45015300D02*
X114641100Y-45015300D01*
X114641100Y-45015300D02*
X114641100Y-48190300D01*
X114641100Y-48190300D02*
X119244900Y-48190300D01*
X119244900Y-48190300D02*
X119244900Y-44181900D01*
X119244900Y-44181900D02*
X115196800Y-44181900D01*
X115196800Y-44181900D02*
X115196800Y-38903500D01*
X115196800Y-38903500D02*
X121705500Y-38903500D01*
X121705500Y-38903500D02*
X121705500Y-48230000D01*
X121705500Y-48230000D02*
X125515500Y-48230000D01*
X125515500Y-48230000D02*
X125515500Y-52476600D01*
X125515500Y-52476600D02*
X123610500Y-52476600D01*
X123610500Y-52476600D02*
X123610500Y-55334100D01*
X123610500Y-55334100D02*
X109481800Y-55334100D01*
X109481800Y-55334100D02*
X109442100Y-55373800D01*
X132540200Y-44777200D02*
X132540200Y-39062200D01*
X132540200Y-39062200D02*
X135199300Y-39062200D01*
X135199300Y-39062200D02*
X135238900Y-39101900D01*
X135238900Y-39101900D02*
X135238900Y-44777200D01*
X135238900Y-44777200D02*
X132540200Y-44777200D01*
X135119900Y-41125900D02*
X145359300Y-41125900D01*
X145359300Y-41125900D02*
X145359300Y-44697800D01*
X145359300Y-44697800D02*
X147303900Y-44697800D01*
X147303900Y-44697800D02*
X147303900Y-46007500D01*
X147303900Y-46007500D02*
X165203000Y-46007500D01*
X165203000Y-46007500D02*
X165203000Y-103554400D01*
X165203000Y-103554400D02*
X170838600Y-103554400D01*
X170838600Y-103554400D02*
X170838600Y-143837200D01*
X170838600Y-143837200D02*
X172465800Y-143837200D01*
X172465800Y-143837200D02*
X172465800Y-44935900D01*
X172465800Y-44935900D02*
X165044300Y-44935900D01*
X165044300Y-44935900D02*
X165044300Y-38625600D01*
X165044300Y-38625600D02*
X147581800Y-38625600D01*
X147581800Y-38625600D02*
X147581800Y-38705000D01*
X147581800Y-38705000D02*
X147343600Y-38943100D01*
X147343600Y-38943100D02*
X136866100Y-38943100D01*
X136866100Y-38943100D02*
X135119900Y-41125900D01*
X134881800Y-39141600D02*
X136866100Y-39141600D01*
X136866100Y-39141600D02*
X136985200Y-39260600D01*
X136985200Y-39260600D02*
X136985200Y-40887800D01*
X136985200Y-40887800D02*
X136866100Y-41006900D01*
X136866100Y-41006900D02*
X135000800Y-41006900D01*
X135000800Y-41006900D02*
X134961100Y-40967200D01*
X134961100Y-40967200D02*
X134961100Y-39101900D01*
X134961100Y-39101900D02*
X134881800Y-39141600D01*
D31*
X127499900Y-146774100D02*
X127499900Y-144996300D01*
X127499900Y-144996300D02*
X126833200Y-144996300D01*
X126833200Y-144996300D02*
X126566600Y-145107400D01*
X126566600Y-145107400D02*
X126433200Y-145329600D01*
X126433200Y-145329600D02*
X126433200Y-145551900D01*
X126433200Y-145551900D02*
X126566600Y-145774100D01*
X126566600Y-145774100D02*
X126833200Y-145885200D01*
X126833200Y-145885200D02*
X127499900Y-145885200D01*
X126077600Y-144996300D02*
X124744300Y-146774100D01*
X126077600Y-146774100D02*
X124744300Y-144996300D01*
X123855400Y-146774100D02*
X123855400Y-144996300D01*
X124388700Y-144996300D02*
X123322000Y-144996300D01*
X121899700Y-145329600D02*
X122033100Y-145107400D01*
X122033100Y-145107400D02*
X122299700Y-144996300D01*
X122299700Y-144996300D02*
X122566400Y-144996300D01*
X122566400Y-144996300D02*
X122833100Y-145107400D01*
X122833100Y-145107400D02*
X122966400Y-145329600D01*
X122966400Y-145329600D02*
X122966400Y-145885200D01*
X122966400Y-145885200D02*
X122966400Y-145996300D01*
X122966400Y-145996300D02*
X122566400Y-145774100D01*
X122566400Y-145774100D02*
X122299700Y-145774100D01*
X122299700Y-145774100D02*
X122033100Y-145885200D01*
X122033100Y-145885200D02*
X121899700Y-146107400D01*
X121899700Y-146107400D02*
X121899700Y-146440700D01*
X121899700Y-146440700D02*
X122033100Y-146663000D01*
X122033100Y-146663000D02*
X122299700Y-146774100D01*
X122299700Y-146774100D02*
X122566400Y-146774100D01*
X122566400Y-146774100D02*
X122833100Y-146663000D01*
X122833100Y-146663000D02*
X122966400Y-146440700D01*
X122966400Y-146440700D02*
X122966400Y-145885200D01*
X131667100Y-148980700D02*
X131533700Y-149203000D01*
X131533700Y-149203000D02*
X131267100Y-149314100D01*
X131267100Y-149314100D02*
X131000400Y-149314100D01*
X131000400Y-149314100D02*
X130733700Y-149203000D01*
X130733700Y-149203000D02*
X130600400Y-148980700D01*
X130600400Y-148980700D02*
X130600400Y-148758500D01*
X130600400Y-148758500D02*
X130733700Y-148536300D01*
X130733700Y-148536300D02*
X131000400Y-148425200D01*
X131000400Y-148425200D02*
X131267100Y-148425200D01*
X131267100Y-148425200D02*
X131533700Y-148314100D01*
X131533700Y-148314100D02*
X131667100Y-148091900D01*
X131667100Y-148091900D02*
X131667100Y-147869600D01*
X131667100Y-147869600D02*
X131533700Y-147647400D01*
X131533700Y-147647400D02*
X131267100Y-147536300D01*
X131267100Y-147536300D02*
X131000400Y-147536300D01*
X131000400Y-147536300D02*
X130733700Y-147647400D01*
X130733700Y-147647400D02*
X130600400Y-147869600D01*
X129178100Y-147869600D02*
X129178100Y-148980700D01*
X129178100Y-148980700D02*
X129311400Y-149203000D01*
X129311400Y-149203000D02*
X129578100Y-149314100D01*
X129578100Y-149314100D02*
X129844800Y-149314100D01*
X129844800Y-149314100D02*
X130111400Y-149203000D01*
X130111400Y-149203000D02*
X130244800Y-148980700D01*
X130244800Y-148980700D02*
X130244800Y-147869600D01*
X130244800Y-147869600D02*
X130111400Y-147647400D01*
X130111400Y-147647400D02*
X129844800Y-147536300D01*
X129844800Y-147536300D02*
X129578100Y-147536300D01*
X129578100Y-147536300D02*
X129311400Y-147647400D01*
X129311400Y-147647400D02*
X129178100Y-147869600D01*
X128822500Y-147536300D02*
X128822500Y-149314100D01*
X128822500Y-149314100D02*
X127889100Y-149314100D01*
X127533600Y-149314100D02*
X127533600Y-147536300D01*
X127533600Y-147536300D02*
X126866900Y-147536300D01*
X126866900Y-147536300D02*
X126600200Y-147647400D01*
X126600200Y-147647400D02*
X126466900Y-147869600D01*
X126466900Y-147869600D02*
X126466900Y-148980700D01*
X126466900Y-148980700D02*
X126600200Y-149203000D01*
X126600200Y-149203000D02*
X126866900Y-149314100D01*
X126866900Y-149314100D02*
X127533600Y-149314100D01*
X125177900Y-149314100D02*
X126111300Y-149314100D01*
X126111300Y-149314100D02*
X126111300Y-147536300D01*
X126111300Y-147536300D02*
X125177900Y-147536300D01*
X126111300Y-148425200D02*
X125177900Y-148425200D01*
X124289000Y-148425200D02*
X123889000Y-148647400D01*
X123889000Y-148647400D02*
X123755700Y-148869600D01*
X123755700Y-148869600D02*
X123755700Y-149314100D01*
X124822400Y-149314100D02*
X124822400Y-147536300D01*
X124822400Y-147536300D02*
X124155700Y-147536300D01*
X124155700Y-147536300D02*
X123889000Y-147647400D01*
X123889000Y-147647400D02*
X123755700Y-147869600D01*
X123755700Y-147869600D02*
X123755700Y-148091900D01*
X123755700Y-148091900D02*
X123889000Y-148314100D01*
X123889000Y-148314100D02*
X124155700Y-148425200D01*
X124155700Y-148425200D02*
X124822400Y-148425200D01*
X121870900Y-148980700D02*
X121737500Y-149203000D01*
X121737500Y-149203000D02*
X121470900Y-149314100D01*
X121470900Y-149314100D02*
X121204200Y-149314100D01*
X121204200Y-149314100D02*
X120937500Y-149203000D01*
X120937500Y-149203000D02*
X120804200Y-148980700D01*
X120804200Y-148980700D02*
X120804200Y-148758500D01*
X120804200Y-148758500D02*
X120937500Y-148536300D01*
X120937500Y-148536300D02*
X121204200Y-148425200D01*
X121204200Y-148425200D02*
X121470900Y-148425200D01*
X121470900Y-148425200D02*
X121737500Y-148314100D01*
X121737500Y-148314100D02*
X121870900Y-148091900D01*
X121870900Y-148091900D02*
X121870900Y-147869600D01*
X121870900Y-147869600D02*
X121737500Y-147647400D01*
X121737500Y-147647400D02*
X121470900Y-147536300D01*
X121470900Y-147536300D02*
X121204200Y-147536300D01*
X121204200Y-147536300D02*
X120937500Y-147647400D01*
X120937500Y-147647400D02*
X120804200Y-147869600D01*
X119684000Y-149314100D02*
X119684000Y-147536300D01*
X118946100Y-149314100D02*
X118946100Y-147536300D01*
X118946100Y-147536300D02*
X118279400Y-147536300D01*
X118279400Y-147536300D02*
X118012700Y-147647400D01*
X118012700Y-147647400D02*
X117879400Y-147869600D01*
X117879400Y-147869600D02*
X117879400Y-148980700D01*
X117879400Y-148980700D02*
X118012700Y-149203000D01*
X118012700Y-149203000D02*
X118279400Y-149314100D01*
X118279400Y-149314100D02*
X118946100Y-149314100D01*
X116590400Y-149314100D02*
X117523800Y-149314100D01*
X117523800Y-149314100D02*
X117523800Y-147536300D01*
X117523800Y-147536300D02*
X116590400Y-147536300D01*
X117523800Y-148425200D02*
X116590400Y-148425200D01*
%TD*%
M02*
