%TF.GenerationSoftware,KiCad,Pcbnew,(6.0.2)*%
%TF.CreationDate,2022-05-06T23:35:53-05:00*%
%TF.ProjectId,PXT6,50585436-2e6b-4696-9361-645f70636258,rev?*%
%TF.SameCoordinates,Original*%
%TF.FileFunction,Soldermask,Bot*%
%TF.FilePolarity,Negative*%
%FSLAX46Y46*%
G04 Gerber Fmt 4.6, Leading zero omitted, Abs format (unit mm)*
G04 Created by KiCad (PCBNEW (6.0.2)) date 2022-05-06 23:35:53*
%MOMM*%
%LPD*%
G01*
G04 APERTURE LIST*
%ADD10C,0.750000*%
%ADD11C,1.945000*%
%ADD12C,2.140000*%
%ADD13C,0.000000*%
%ADD14C,0.700000*%
%ADD15C,0.875000*%
%ADD16C,0.760000*%
%ADD17C,0.625000*%
G04 APERTURE END LIST*
D10*
X117635500Y-46205900D02*
G75*
G03*
X117635500Y-46205900I-375000J0D01*
G01*
D11*
X165024600Y-129708500D02*
G75*
G03*
X165024600Y-129708500I-972500J0D01*
G01*
D12*
X119759300Y-98474400D02*
G75*
G03*
X119759300Y-98474400I-1070000J0D01*
G01*
X113131500Y-139233500D02*
G75*
G03*
X113131500Y-139233500I-1070000J0D01*
G01*
X165161800Y-139193800D02*
G75*
G03*
X165161800Y-139193800I-1070000J0D01*
G01*
X119679900Y-51127200D02*
G75*
G03*
X119679900Y-51127200I-1070000J0D01*
G01*
D10*
X157680200Y-121691600D02*
G75*
G03*
X157680200Y-121691600I-375000J0D01*
G01*
X157680200Y-126811300D02*
G75*
G03*
X157680200Y-126811300I-375000J0D01*
G01*
D13*
G36*
X116134900Y-127273100D02*
G01*
X114734900Y-127273100D01*
X114734900Y-125873100D01*
X116134900Y-125873100D01*
X116134900Y-127273100D01*
G37*
D14*
X118324900Y-126573100D02*
G75*
G03*
X118324900Y-126573100I-350000J0D01*
G01*
X120864900Y-126573100D02*
G75*
G03*
X120864900Y-126573100I-350000J0D01*
G01*
X123404900Y-126573100D02*
G75*
G03*
X123404900Y-126573100I-350000J0D01*
G01*
X125944900Y-126573100D02*
G75*
G03*
X125944900Y-126573100I-350000J0D01*
G01*
X128484900Y-126573100D02*
G75*
G03*
X128484900Y-126573100I-350000J0D01*
G01*
X131024900Y-126573100D02*
G75*
G03*
X131024900Y-126573100I-350000J0D01*
G01*
X133564900Y-126573100D02*
G75*
G03*
X133564900Y-126573100I-350000J0D01*
G01*
X136104900Y-126573100D02*
G75*
G03*
X136104900Y-126573100I-350000J0D01*
G01*
X138644900Y-126573100D02*
G75*
G03*
X138644900Y-126573100I-350000J0D01*
G01*
X141184900Y-126573100D02*
G75*
G03*
X141184900Y-126573100I-350000J0D01*
G01*
X143724900Y-126573100D02*
G75*
G03*
X143724900Y-126573100I-350000J0D01*
G01*
X146264900Y-126573100D02*
G75*
G03*
X146264900Y-126573100I-350000J0D01*
G01*
X148804900Y-126573100D02*
G75*
G03*
X148804900Y-126573100I-350000J0D01*
G01*
X151344900Y-126573100D02*
G75*
G03*
X151344900Y-126573100I-350000J0D01*
G01*
X153884900Y-126573100D02*
G75*
G03*
X153884900Y-126573100I-350000J0D01*
G01*
X153884900Y-111333100D02*
G75*
G03*
X153884900Y-111333100I-350000J0D01*
G01*
X151344900Y-111333100D02*
G75*
G03*
X151344900Y-111333100I-350000J0D01*
G01*
X148804900Y-111333100D02*
G75*
G03*
X148804900Y-111333100I-350000J0D01*
G01*
X146264900Y-111333100D02*
G75*
G03*
X146264900Y-111333100I-350000J0D01*
G01*
X143724900Y-111333100D02*
G75*
G03*
X143724900Y-111333100I-350000J0D01*
G01*
X141184900Y-111333100D02*
G75*
G03*
X141184900Y-111333100I-350000J0D01*
G01*
X138644900Y-111333100D02*
G75*
G03*
X138644900Y-111333100I-350000J0D01*
G01*
X136104900Y-111333100D02*
G75*
G03*
X136104900Y-111333100I-350000J0D01*
G01*
X133564900Y-111333100D02*
G75*
G03*
X133564900Y-111333100I-350000J0D01*
G01*
X131024900Y-111333100D02*
G75*
G03*
X131024900Y-111333100I-350000J0D01*
G01*
X128484900Y-111333100D02*
G75*
G03*
X128484900Y-111333100I-350000J0D01*
G01*
X125944900Y-111333100D02*
G75*
G03*
X125944900Y-111333100I-350000J0D01*
G01*
X123404900Y-111333100D02*
G75*
G03*
X123404900Y-111333100I-350000J0D01*
G01*
X120864900Y-111333100D02*
G75*
G03*
X120864900Y-111333100I-350000J0D01*
G01*
X118324900Y-111333100D02*
G75*
G03*
X118324900Y-111333100I-350000J0D01*
G01*
X115784900Y-111333100D02*
G75*
G03*
X115784900Y-111333100I-350000J0D01*
G01*
D10*
X166689300Y-106372200D02*
G75*
G03*
X166689300Y-106372200I-375000J0D01*
G01*
X164069900Y-106372200D02*
G75*
G03*
X164069900Y-106372200I-375000J0D01*
G01*
X169268900Y-106372200D02*
G75*
G03*
X169268900Y-106372200I-375000J0D01*
G01*
X154505200Y-103038500D02*
G75*
G03*
X154505200Y-103038500I-375000J0D01*
G01*
X154584600Y-97958500D02*
G75*
G03*
X154584600Y-97958500I-375000J0D01*
G01*
X159029600Y-81964400D02*
G75*
G03*
X159029600Y-81964400I-375000J0D01*
G01*
X153949600Y-81964400D02*
G75*
G03*
X153949600Y-81964400I-375000J0D01*
G01*
X145019900Y-82004100D02*
G75*
G03*
X145019900Y-82004100I-375000J0D01*
G01*
X139900200Y-81964400D02*
G75*
G03*
X139900200Y-81964400I-375000J0D01*
G01*
X130970500Y-82043800D02*
G75*
G03*
X130970500Y-82043800I-375000J0D01*
G01*
X125850800Y-82083500D02*
G75*
G03*
X125850800Y-82083500I-375000J0D01*
G01*
X124064900Y-46205900D02*
G75*
G03*
X124064900Y-46205900I-375000J0D01*
G01*
X125890500Y-46205900D02*
G75*
G03*
X125890500Y-46205900I-375000J0D01*
G01*
X129779900Y-46205900D02*
G75*
G03*
X129779900Y-46205900I-375000J0D01*
G01*
X129779900Y-43626300D02*
G75*
G03*
X129779900Y-43626300I-375000J0D01*
G01*
X125930200Y-43626300D02*
G75*
G03*
X125930200Y-43626300I-375000J0D01*
G01*
D15*
X140716800Y-43586600D02*
G75*
G03*
X140716800Y-43586600I-437500J0D01*
G01*
X143733000Y-43586600D02*
G75*
G03*
X143733000Y-43586600I-437500J0D01*
G01*
X137581400Y-43586600D02*
G75*
G03*
X137581400Y-43586600I-437500J0D01*
G01*
X134287400Y-43586600D02*
G75*
G03*
X134287400Y-43586600I-437500J0D01*
G01*
X134287400Y-43586600D02*
G75*
G03*
X134287400Y-43586600I-437500J0D01*
G01*
X147027100Y-43586600D02*
G75*
G03*
X147027100Y-43586600I-437500J0D01*
G01*
D10*
X144384900Y-51246300D02*
G75*
G03*
X144384900Y-51246300I-375000J0D01*
G01*
X150814300Y-51246300D02*
G75*
G03*
X150814300Y-51246300I-375000J0D01*
G01*
D13*
G36*
X154351200Y-78718700D02*
G01*
X152951200Y-78718700D01*
X152951200Y-77318700D01*
X154351200Y-77318700D01*
X154351200Y-78718700D01*
G37*
D14*
X154001200Y-75478700D02*
G75*
G03*
X154001200Y-75478700I-350000J0D01*
G01*
X154001200Y-72938700D02*
G75*
G03*
X154001200Y-72938700I-350000J0D01*
G01*
X154001200Y-70398700D02*
G75*
G03*
X154001200Y-70398700I-350000J0D01*
G01*
X154001200Y-67858700D02*
G75*
G03*
X154001200Y-67858700I-350000J0D01*
G01*
X154001200Y-65318700D02*
G75*
G03*
X154001200Y-65318700I-350000J0D01*
G01*
X154001200Y-62778700D02*
G75*
G03*
X154001200Y-62778700I-350000J0D01*
G01*
X154001200Y-60238700D02*
G75*
G03*
X154001200Y-60238700I-350000J0D01*
G01*
X154001200Y-57698700D02*
G75*
G03*
X154001200Y-57698700I-350000J0D01*
G01*
X154001200Y-55158700D02*
G75*
G03*
X154001200Y-55158700I-350000J0D01*
G01*
X154001200Y-52618700D02*
G75*
G03*
X154001200Y-52618700I-350000J0D01*
G01*
X154001200Y-50078700D02*
G75*
G03*
X154001200Y-50078700I-350000J0D01*
G01*
X161621200Y-50078700D02*
G75*
G03*
X161621200Y-50078700I-350000J0D01*
G01*
X161621200Y-52618700D02*
G75*
G03*
X161621200Y-52618700I-350000J0D01*
G01*
X161621200Y-55158700D02*
G75*
G03*
X161621200Y-55158700I-350000J0D01*
G01*
X161621200Y-57698700D02*
G75*
G03*
X161621200Y-57698700I-350000J0D01*
G01*
X161621200Y-60238700D02*
G75*
G03*
X161621200Y-60238700I-350000J0D01*
G01*
X161621200Y-62778700D02*
G75*
G03*
X161621200Y-62778700I-350000J0D01*
G01*
X161621200Y-65318700D02*
G75*
G03*
X161621200Y-65318700I-350000J0D01*
G01*
X161621200Y-67858700D02*
G75*
G03*
X161621200Y-67858700I-350000J0D01*
G01*
X161621200Y-70398700D02*
G75*
G03*
X161621200Y-70398700I-350000J0D01*
G01*
X161621200Y-72938700D02*
G75*
G03*
X161621200Y-72938700I-350000J0D01*
G01*
X161621200Y-75478700D02*
G75*
G03*
X161621200Y-75478700I-350000J0D01*
G01*
X161621200Y-78018700D02*
G75*
G03*
X161621200Y-78018700I-350000J0D01*
G01*
D13*
G36*
X140301800Y-78758500D02*
G01*
X138901800Y-78758500D01*
X138901800Y-77358500D01*
X140301800Y-77358500D01*
X140301800Y-78758500D01*
G37*
D14*
X139951800Y-75518500D02*
G75*
G03*
X139951800Y-75518500I-350000J0D01*
G01*
X139951800Y-72978500D02*
G75*
G03*
X139951800Y-72978500I-350000J0D01*
G01*
X139951800Y-70438500D02*
G75*
G03*
X139951800Y-70438500I-350000J0D01*
G01*
X139951800Y-67898500D02*
G75*
G03*
X139951800Y-67898500I-350000J0D01*
G01*
X139951800Y-65358500D02*
G75*
G03*
X139951800Y-65358500I-350000J0D01*
G01*
X139951800Y-62818500D02*
G75*
G03*
X139951800Y-62818500I-350000J0D01*
G01*
X139951800Y-60278500D02*
G75*
G03*
X139951800Y-60278500I-350000J0D01*
G01*
X139951800Y-57738500D02*
G75*
G03*
X139951800Y-57738500I-350000J0D01*
G01*
X139951800Y-55198500D02*
G75*
G03*
X139951800Y-55198500I-350000J0D01*
G01*
X147571800Y-55198500D02*
G75*
G03*
X147571800Y-55198500I-350000J0D01*
G01*
X147571800Y-57738500D02*
G75*
G03*
X147571800Y-57738500I-350000J0D01*
G01*
X147571800Y-60278500D02*
G75*
G03*
X147571800Y-60278500I-350000J0D01*
G01*
X147571800Y-62818500D02*
G75*
G03*
X147571800Y-62818500I-350000J0D01*
G01*
X147571800Y-65358500D02*
G75*
G03*
X147571800Y-65358500I-350000J0D01*
G01*
X147571800Y-67898500D02*
G75*
G03*
X147571800Y-67898500I-350000J0D01*
G01*
X147571800Y-70438500D02*
G75*
G03*
X147571800Y-70438500I-350000J0D01*
G01*
X147571800Y-72978500D02*
G75*
G03*
X147571800Y-72978500I-350000J0D01*
G01*
X147571800Y-75518500D02*
G75*
G03*
X147571800Y-75518500I-350000J0D01*
G01*
X147571800Y-78058500D02*
G75*
G03*
X147571800Y-78058500I-350000J0D01*
G01*
D13*
G36*
X126292100Y-78758500D02*
G01*
X124892100Y-78758500D01*
X124892100Y-77358500D01*
X126292100Y-77358500D01*
X126292100Y-78758500D01*
G37*
D14*
X125942100Y-75518500D02*
G75*
G03*
X125942100Y-75518500I-350000J0D01*
G01*
X125942100Y-72978500D02*
G75*
G03*
X125942100Y-72978500I-350000J0D01*
G01*
X125942100Y-70438500D02*
G75*
G03*
X125942100Y-70438500I-350000J0D01*
G01*
X125942100Y-67898500D02*
G75*
G03*
X125942100Y-67898500I-350000J0D01*
G01*
X125942100Y-65358500D02*
G75*
G03*
X125942100Y-65358500I-350000J0D01*
G01*
X125942100Y-62818500D02*
G75*
G03*
X125942100Y-62818500I-350000J0D01*
G01*
X125942100Y-60278500D02*
G75*
G03*
X125942100Y-60278500I-350000J0D01*
G01*
X125942100Y-57738500D02*
G75*
G03*
X125942100Y-57738500I-350000J0D01*
G01*
X125942100Y-55198500D02*
G75*
G03*
X125942100Y-55198500I-350000J0D01*
G01*
X133562100Y-55198500D02*
G75*
G03*
X133562100Y-55198500I-350000J0D01*
G01*
X133562100Y-57738500D02*
G75*
G03*
X133562100Y-57738500I-350000J0D01*
G01*
X133562100Y-60278500D02*
G75*
G03*
X133562100Y-60278500I-350000J0D01*
G01*
X133562100Y-62818500D02*
G75*
G03*
X133562100Y-62818500I-350000J0D01*
G01*
X133562100Y-65358500D02*
G75*
G03*
X133562100Y-65358500I-350000J0D01*
G01*
X133562100Y-67898500D02*
G75*
G03*
X133562100Y-67898500I-350000J0D01*
G01*
X133562100Y-70438500D02*
G75*
G03*
X133562100Y-70438500I-350000J0D01*
G01*
X133562100Y-72978500D02*
G75*
G03*
X133562100Y-72978500I-350000J0D01*
G01*
X133562100Y-75518500D02*
G75*
G03*
X133562100Y-75518500I-350000J0D01*
G01*
X133562100Y-78058500D02*
G75*
G03*
X133562100Y-78058500I-350000J0D01*
G01*
D13*
G36*
X120691400Y-59041300D02*
G01*
X119171400Y-59041300D01*
X119171400Y-57521300D01*
X120691400Y-57521300D01*
X120691400Y-59041300D01*
G37*
D16*
X120311400Y-61051300D02*
G75*
G03*
X120311400Y-61051300I-380000J0D01*
G01*
X120311400Y-63821300D02*
G75*
G03*
X120311400Y-63821300I-380000J0D01*
G01*
X120311400Y-66591300D02*
G75*
G03*
X120311400Y-66591300I-380000J0D01*
G01*
X120311400Y-69351300D02*
G75*
G03*
X120311400Y-69351300I-380000J0D01*
G01*
X120311400Y-72121300D02*
G75*
G03*
X120311400Y-72121300I-380000J0D01*
G01*
X120311400Y-74891300D02*
G75*
G03*
X120311400Y-74891300I-380000J0D01*
G01*
X120311400Y-77661300D02*
G75*
G03*
X120311400Y-77661300I-380000J0D01*
G01*
X120311400Y-80431300D02*
G75*
G03*
X120311400Y-80431300I-380000J0D01*
G01*
X120311400Y-83201300D02*
G75*
G03*
X120311400Y-83201300I-380000J0D01*
G01*
X120311400Y-85971300D02*
G75*
G03*
X120311400Y-85971300I-380000J0D01*
G01*
X120311400Y-88731300D02*
G75*
G03*
X120311400Y-88731300I-380000J0D01*
G01*
X120311400Y-91501300D02*
G75*
G03*
X120311400Y-91501300I-380000J0D01*
G01*
X117471400Y-59651300D02*
G75*
G03*
X117471400Y-59651300I-380000J0D01*
G01*
X117471400Y-62421300D02*
G75*
G03*
X117471400Y-62421300I-380000J0D01*
G01*
X117471400Y-65191300D02*
G75*
G03*
X117471400Y-65191300I-380000J0D01*
G01*
X117471400Y-67961300D02*
G75*
G03*
X117471400Y-67961300I-380000J0D01*
G01*
X117471400Y-70731300D02*
G75*
G03*
X117471400Y-70731300I-380000J0D01*
G01*
X117471400Y-73491300D02*
G75*
G03*
X117471400Y-73491300I-380000J0D01*
G01*
X117471400Y-76261300D02*
G75*
G03*
X117471400Y-76261300I-380000J0D01*
G01*
X117471400Y-79031300D02*
G75*
G03*
X117471400Y-79031300I-380000J0D01*
G01*
X117471400Y-81801300D02*
G75*
G03*
X117471400Y-81801300I-380000J0D01*
G01*
X117471400Y-84571300D02*
G75*
G03*
X117471400Y-84571300I-380000J0D01*
G01*
X117471400Y-87341300D02*
G75*
G03*
X117471400Y-87341300I-380000J0D01*
G01*
X117471400Y-90111300D02*
G75*
G03*
X117471400Y-90111300I-380000J0D01*
G01*
D17*
X117374600Y-141773500D02*
G75*
G03*
X117374600Y-141773500I-312500J0D01*
G01*
X117374600Y-137923800D02*
G75*
G03*
X117374600Y-137923800I-312500J0D01*
G01*
X118644600Y-139868500D02*
G75*
G03*
X118644600Y-139868500I-312500J0D01*
G01*
X119874900Y-141773500D02*
G75*
G03*
X119874900Y-141773500I-312500J0D01*
G01*
X118724000Y-136018800D02*
G75*
G03*
X118724000Y-136018800I-312500J0D01*
G01*
X119914600Y-137923800D02*
G75*
G03*
X119914600Y-137923800I-312500J0D01*
G01*
X121184600Y-139828800D02*
G75*
G03*
X121184600Y-139828800I-312500J0D01*
G01*
X122454600Y-141773500D02*
G75*
G03*
X122454600Y-141773500I-312500J0D01*
G01*
X121184600Y-136018800D02*
G75*
G03*
X121184600Y-136018800I-312500J0D01*
G01*
X122375200Y-137923800D02*
G75*
G03*
X122375200Y-137923800I-312500J0D01*
G01*
X123645200Y-139828800D02*
G75*
G03*
X123645200Y-139828800I-312500J0D01*
G01*
X124915200Y-141773500D02*
G75*
G03*
X124915200Y-141773500I-312500J0D01*
G01*
X123684900Y-136018800D02*
G75*
G03*
X123684900Y-136018800I-312500J0D01*
G01*
X124875500Y-137923800D02*
G75*
G03*
X124875500Y-137923800I-312500J0D01*
G01*
X126145500Y-139828800D02*
G75*
G03*
X126145500Y-139828800I-312500J0D01*
G01*
X127415500Y-141773500D02*
G75*
G03*
X127415500Y-141773500I-312500J0D01*
G01*
X126264600Y-136018800D02*
G75*
G03*
X126264600Y-136018800I-312500J0D01*
G01*
X127455200Y-137923800D02*
G75*
G03*
X127455200Y-137923800I-312500J0D01*
G01*
X128725200Y-139828800D02*
G75*
G03*
X128725200Y-139828800I-312500J0D01*
G01*
X129995200Y-141773500D02*
G75*
G03*
X129995200Y-141773500I-312500J0D01*
G01*
X128725200Y-136018800D02*
G75*
G03*
X128725200Y-136018800I-312500J0D01*
G01*
X129915800Y-137923800D02*
G75*
G03*
X129915800Y-137923800I-312500J0D01*
G01*
X131185800Y-139828800D02*
G75*
G03*
X131185800Y-139828800I-312500J0D01*
G01*
X132455800Y-141773500D02*
G75*
G03*
X132455800Y-141773500I-312500J0D01*
G01*
X131225500Y-136018800D02*
G75*
G03*
X131225500Y-136018800I-312500J0D01*
G01*
X132416100Y-137923800D02*
G75*
G03*
X132416100Y-137923800I-312500J0D01*
G01*
X133686100Y-139828800D02*
G75*
G03*
X133686100Y-139828800I-312500J0D01*
G01*
X134956100Y-141773500D02*
G75*
G03*
X134956100Y-141773500I-312500J0D01*
G01*
X133924300Y-136018800D02*
G75*
G03*
X133924300Y-136018800I-312500J0D01*
G01*
X135114900Y-137923800D02*
G75*
G03*
X135114900Y-137923800I-312500J0D01*
G01*
X136384900Y-139828800D02*
G75*
G03*
X136384900Y-139828800I-312500J0D01*
G01*
X137654900Y-141773500D02*
G75*
G03*
X137654900Y-141773500I-312500J0D01*
G01*
X136384900Y-136018800D02*
G75*
G03*
X136384900Y-136018800I-312500J0D01*
G01*
X137575500Y-137923800D02*
G75*
G03*
X137575500Y-137923800I-312500J0D01*
G01*
X138845500Y-139828800D02*
G75*
G03*
X138845500Y-139828800I-312500J0D01*
G01*
X140115500Y-141773500D02*
G75*
G03*
X140115500Y-141773500I-312500J0D01*
G01*
X138885200Y-136018800D02*
G75*
G03*
X138885200Y-136018800I-312500J0D01*
G01*
X140075800Y-137923800D02*
G75*
G03*
X140075800Y-137923800I-312500J0D01*
G01*
X141345800Y-139828800D02*
G75*
G03*
X141345800Y-139828800I-312500J0D01*
G01*
X142615800Y-141773500D02*
G75*
G03*
X142615800Y-141773500I-312500J0D01*
G01*
X141544300Y-136018800D02*
G75*
G03*
X141544300Y-136018800I-312500J0D01*
G01*
X142734900Y-137923800D02*
G75*
G03*
X142734900Y-137923800I-312500J0D01*
G01*
X144004900Y-139828800D02*
G75*
G03*
X144004900Y-139828800I-312500J0D01*
G01*
X145274900Y-141773500D02*
G75*
G03*
X145274900Y-141773500I-312500J0D01*
G01*
X144004900Y-136018800D02*
G75*
G03*
X144004900Y-136018800I-312500J0D01*
G01*
X145195500Y-137923800D02*
G75*
G03*
X145195500Y-137923800I-312500J0D01*
G01*
X146465500Y-139828800D02*
G75*
G03*
X146465500Y-139828800I-312500J0D01*
G01*
X147735500Y-141773500D02*
G75*
G03*
X147735500Y-141773500I-312500J0D01*
G01*
X146505200Y-136018800D02*
G75*
G03*
X146505200Y-136018800I-312500J0D01*
G01*
X147695800Y-137923800D02*
G75*
G03*
X147695800Y-137923800I-312500J0D01*
G01*
X148965800Y-139828800D02*
G75*
G03*
X148965800Y-139828800I-312500J0D01*
G01*
X150235800Y-141773500D02*
G75*
G03*
X150235800Y-141773500I-312500J0D01*
G01*
X149243600Y-136018800D02*
G75*
G03*
X149243600Y-136018800I-312500J0D01*
G01*
X150434300Y-137923800D02*
G75*
G03*
X150434300Y-137923800I-312500J0D01*
G01*
X151704300Y-139828800D02*
G75*
G03*
X151704300Y-139828800I-312500J0D01*
G01*
X152974300Y-141773500D02*
G75*
G03*
X152974300Y-141773500I-312500J0D01*
G01*
X151704300Y-136018800D02*
G75*
G03*
X151704300Y-136018800I-312500J0D01*
G01*
X152894900Y-137923800D02*
G75*
G03*
X152894900Y-137923800I-312500J0D01*
G01*
X154164900Y-139828800D02*
G75*
G03*
X154164900Y-139828800I-312500J0D01*
G01*
X155434900Y-141773500D02*
G75*
G03*
X155434900Y-141773500I-312500J0D01*
G01*
X154204600Y-136018800D02*
G75*
G03*
X154204600Y-136018800I-312500J0D01*
G01*
X155395200Y-137923800D02*
G75*
G03*
X155395200Y-137923800I-312500J0D01*
G01*
X156665200Y-139828800D02*
G75*
G03*
X156665200Y-139828800I-312500J0D01*
G01*
X157935200Y-141773500D02*
G75*
G03*
X157935200Y-141773500I-312500J0D01*
G01*
X156784300Y-136018800D02*
G75*
G03*
X156784300Y-136018800I-312500J0D01*
G01*
X158054300Y-137963500D02*
G75*
G03*
X158054300Y-137963500I-312500J0D01*
G01*
X159284600Y-139868500D02*
G75*
G03*
X159284600Y-139868500I-312500J0D01*
G01*
X159443300Y-136018800D02*
G75*
G03*
X159443300Y-136018800I-312500J0D01*
G01*
M02*
