%TF.GenerationSoftware,KiCad,Pcbnew,(6.0.2)*%
%TF.CreationDate,2022-05-06T23:35:53-05:00*%
%TF.ProjectId,PXT6,50585436-2e6b-4696-9361-645f70636258,rev?*%
%TF.SameCoordinates,Original*%
%TF.FileFunction,Legend,Top*%
%TF.FilePolarity,Positive*%
%FSLAX46Y46*%
G04 Gerber Fmt 4.6, Leading zero omitted, Abs format (unit mm)*
G04 Created by KiCad (PCBNEW (6.0.2)) date 2022-05-06 23:35:53*
%MOMM*%
%LPD*%
G01*
G04 APERTURE LIST*
%ADD10C,0.150000*%
%ADD11C,0.100000*%
%ADD12C,0.250000*%
%ADD13C,0.124000*%
%ADD14C,0.167000*%
G04 APERTURE END LIST*
D10*
X138037714Y-41072761D02*
X138180571Y-41120380D01*
X138418666Y-41120380D01*
X138513904Y-41072761D01*
X138561523Y-41025142D01*
X138609142Y-40929904D01*
X138609142Y-40834666D01*
X138561523Y-40739428D01*
X138513904Y-40691809D01*
X138418666Y-40644190D01*
X138228190Y-40596571D01*
X138132952Y-40548952D01*
X138085333Y-40501333D01*
X138037714Y-40406095D01*
X138037714Y-40310857D01*
X138085333Y-40215619D01*
X138132952Y-40168000D01*
X138228190Y-40120380D01*
X138466285Y-40120380D01*
X138609142Y-40168000D01*
X138942476Y-40453714D02*
X139132952Y-41120380D01*
X139323428Y-40644190D01*
X139513904Y-41120380D01*
X139704380Y-40453714D01*
X140085333Y-41120380D02*
X140085333Y-40453714D01*
X140085333Y-40120380D02*
X140037714Y-40168000D01*
X140085333Y-40215619D01*
X140132952Y-40168000D01*
X140085333Y-40120380D01*
X140085333Y-40215619D01*
X140418666Y-40453714D02*
X140799619Y-40453714D01*
X140561523Y-40120380D02*
X140561523Y-40977523D01*
X140609142Y-41072761D01*
X140704380Y-41120380D01*
X140799619Y-41120380D01*
X141561523Y-41072761D02*
X141466285Y-41120380D01*
X141275809Y-41120380D01*
X141180571Y-41072761D01*
X141132952Y-41025142D01*
X141085333Y-40929904D01*
X141085333Y-40644190D01*
X141132952Y-40548952D01*
X141180571Y-40501333D01*
X141275809Y-40453714D01*
X141466285Y-40453714D01*
X141561523Y-40501333D01*
X141990095Y-41120380D02*
X141990095Y-40120380D01*
X142418666Y-41120380D02*
X142418666Y-40596571D01*
X142371047Y-40501333D01*
X142275809Y-40453714D01*
X142132952Y-40453714D01*
X142037714Y-40501333D01*
X141990095Y-40548952D01*
X145006952Y-48703380D02*
X144435523Y-48703380D01*
X144721238Y-48703380D02*
X144721238Y-47703380D01*
X144626000Y-47846238D01*
X144530761Y-47941476D01*
X144435523Y-47989095D01*
X145626000Y-47703380D02*
X145721238Y-47703380D01*
X145816476Y-47751000D01*
X145864095Y-47798619D01*
X145911714Y-47893857D01*
X145959333Y-48084333D01*
X145959333Y-48322428D01*
X145911714Y-48512904D01*
X145864095Y-48608142D01*
X145816476Y-48655761D01*
X145721238Y-48703380D01*
X145626000Y-48703380D01*
X145530761Y-48655761D01*
X145483142Y-48608142D01*
X145435523Y-48512904D01*
X145387904Y-48322428D01*
X145387904Y-48084333D01*
X145435523Y-47893857D01*
X145483142Y-47798619D01*
X145530761Y-47751000D01*
X145626000Y-47703380D01*
X146387904Y-48703380D02*
X146387904Y-47703380D01*
X146483142Y-48322428D02*
X146768857Y-48703380D01*
X146768857Y-48036714D02*
X146387904Y-48417666D01*
X148149809Y-47703380D02*
X148340285Y-47703380D01*
X148435523Y-47751000D01*
X148530761Y-47846238D01*
X148578380Y-48036714D01*
X148578380Y-48370047D01*
X148530761Y-48560523D01*
X148435523Y-48655761D01*
X148340285Y-48703380D01*
X148149809Y-48703380D01*
X148054571Y-48655761D01*
X147959333Y-48560523D01*
X147911714Y-48370047D01*
X147911714Y-48036714D01*
X147959333Y-47846238D01*
X148054571Y-47751000D01*
X148149809Y-47703380D01*
X149006952Y-48703380D02*
X149006952Y-47703380D01*
X149435523Y-48703380D02*
X149435523Y-48179571D01*
X149387904Y-48084333D01*
X149292666Y-48036714D01*
X149149809Y-48036714D01*
X149054571Y-48084333D01*
X149006952Y-48131952D01*
X149911714Y-48703380D02*
X149911714Y-48036714D01*
X149911714Y-48131952D02*
X149959333Y-48084333D01*
X150054571Y-48036714D01*
X150197428Y-48036714D01*
X150292666Y-48084333D01*
X150340285Y-48179571D01*
X150340285Y-48703380D01*
X150340285Y-48179571D02*
X150387904Y-48084333D01*
X150483142Y-48036714D01*
X150626000Y-48036714D01*
X150721238Y-48084333D01*
X150768857Y-48179571D01*
X150768857Y-48703380D01*
X116596095Y-42972380D02*
X116691333Y-42972380D01*
X116786571Y-43020000D01*
X116834190Y-43067619D01*
X116881809Y-43162857D01*
X116929428Y-43353333D01*
X116929428Y-43591428D01*
X116881809Y-43781904D01*
X116834190Y-43877142D01*
X116786571Y-43924761D01*
X116691333Y-43972380D01*
X116596095Y-43972380D01*
X116500857Y-43924761D01*
X116453238Y-43877142D01*
X116405619Y-43781904D01*
X116358000Y-43591428D01*
X116358000Y-43353333D01*
X116405619Y-43162857D01*
X116453238Y-43067619D01*
X116500857Y-43020000D01*
X116596095Y-42972380D01*
X117358000Y-43877142D02*
X117405619Y-43924761D01*
X117358000Y-43972380D01*
X117310380Y-43924761D01*
X117358000Y-43877142D01*
X117358000Y-43972380D01*
X118262761Y-43305714D02*
X118262761Y-43972380D01*
X118024666Y-42924761D02*
X117786571Y-43639047D01*
X118405619Y-43639047D01*
X118691333Y-42972380D02*
X119358000Y-42972380D01*
X118929428Y-43972380D01*
X120691333Y-42972380D02*
X120881809Y-42972380D01*
X120977047Y-43020000D01*
X121072285Y-43115238D01*
X121119904Y-43305714D01*
X121119904Y-43639047D01*
X121072285Y-43829523D01*
X120977047Y-43924761D01*
X120881809Y-43972380D01*
X120691333Y-43972380D01*
X120596095Y-43924761D01*
X120500857Y-43829523D01*
X120453238Y-43639047D01*
X120453238Y-43305714D01*
X120500857Y-43115238D01*
X120596095Y-43020000D01*
X120691333Y-42972380D01*
X121548476Y-43972380D02*
X121548476Y-42972380D01*
X121977047Y-43972380D02*
X121977047Y-43448571D01*
X121929428Y-43353333D01*
X121834190Y-43305714D01*
X121691333Y-43305714D01*
X121596095Y-43353333D01*
X121548476Y-43400952D01*
X122453238Y-43972380D02*
X122453238Y-43305714D01*
X122453238Y-43400952D02*
X122500857Y-43353333D01*
X122596095Y-43305714D01*
X122738952Y-43305714D01*
X122834190Y-43353333D01*
X122881809Y-43448571D01*
X122881809Y-43972380D01*
X122881809Y-43448571D02*
X122929428Y-43353333D01*
X123024666Y-43305714D01*
X123167523Y-43305714D01*
X123262761Y-43353333D01*
X123310380Y-43448571D01*
X123310380Y-43972380D01*
X128880380Y-70462095D02*
X128880380Y-69795428D01*
X129880380Y-70224000D01*
X129213714Y-68985904D02*
X129880380Y-68985904D01*
X128832761Y-69224000D02*
X129547047Y-69462095D01*
X129547047Y-68843047D01*
X129880380Y-68462095D02*
X128880380Y-68462095D01*
X129356571Y-68462095D02*
X129356571Y-67890666D01*
X129880380Y-67890666D02*
X128880380Y-67890666D01*
X129785142Y-66843047D02*
X129832761Y-66890666D01*
X129880380Y-67033523D01*
X129880380Y-67128761D01*
X129832761Y-67271619D01*
X129737523Y-67366857D01*
X129642285Y-67414476D01*
X129451809Y-67462095D01*
X129308952Y-67462095D01*
X129118476Y-67414476D01*
X129023238Y-67366857D01*
X128928000Y-67271619D01*
X128880380Y-67128761D01*
X128880380Y-67033523D01*
X128928000Y-66890666D01*
X128975619Y-66843047D01*
X129880380Y-65890666D02*
X129880380Y-66462095D01*
X129880380Y-66176380D02*
X128880380Y-66176380D01*
X129023238Y-66271619D01*
X129118476Y-66366857D01*
X129166095Y-66462095D01*
X128975619Y-65509714D02*
X128928000Y-65462095D01*
X128880380Y-65366857D01*
X128880380Y-65128761D01*
X128928000Y-65033523D01*
X128975619Y-64985904D01*
X129070857Y-64938285D01*
X129166095Y-64938285D01*
X129308952Y-64985904D01*
X129880380Y-65557333D01*
X129880380Y-64938285D01*
X129213714Y-64081142D02*
X129880380Y-64081142D01*
X128832761Y-64319238D02*
X129547047Y-64557333D01*
X129547047Y-63938285D01*
X128880380Y-63081142D02*
X128880380Y-63557333D01*
X129356571Y-63604952D01*
X129308952Y-63557333D01*
X129261333Y-63462095D01*
X129261333Y-63224000D01*
X129308952Y-63128761D01*
X129356571Y-63081142D01*
X129451809Y-63033523D01*
X129689904Y-63033523D01*
X129785142Y-63081142D01*
X129832761Y-63128761D01*
X129880380Y-63224000D01*
X129880380Y-63462095D01*
X129832761Y-63557333D01*
X129785142Y-63604952D01*
X143038380Y-70130904D02*
X143038380Y-69464238D01*
X144038380Y-69892809D01*
X143371714Y-68654714D02*
X144038380Y-68654714D01*
X142990761Y-68892809D02*
X143705047Y-69130904D01*
X143705047Y-68511857D01*
X144038380Y-68130904D02*
X143038380Y-68130904D01*
X143514571Y-68130904D02*
X143514571Y-67559476D01*
X144038380Y-67559476D02*
X143038380Y-67559476D01*
X143943142Y-66511857D02*
X143990761Y-66559476D01*
X144038380Y-66702333D01*
X144038380Y-66797571D01*
X143990761Y-66940428D01*
X143895523Y-67035666D01*
X143800285Y-67083285D01*
X143609809Y-67130904D01*
X143466952Y-67130904D01*
X143276476Y-67083285D01*
X143181238Y-67035666D01*
X143086000Y-66940428D01*
X143038380Y-66797571D01*
X143038380Y-66702333D01*
X143086000Y-66559476D01*
X143133619Y-66511857D01*
X143038380Y-66178523D02*
X143038380Y-65559476D01*
X143419333Y-65892809D01*
X143419333Y-65749952D01*
X143466952Y-65654714D01*
X143514571Y-65607095D01*
X143609809Y-65559476D01*
X143847904Y-65559476D01*
X143943142Y-65607095D01*
X143990761Y-65654714D01*
X144038380Y-65749952D01*
X144038380Y-66035666D01*
X143990761Y-66130904D01*
X143943142Y-66178523D01*
X143038380Y-65226142D02*
X143038380Y-64559476D01*
X144038380Y-64988047D01*
X143038380Y-64273761D02*
X143038380Y-63654714D01*
X143419333Y-63988047D01*
X143419333Y-63845190D01*
X143466952Y-63749952D01*
X143514571Y-63702333D01*
X143609809Y-63654714D01*
X143847904Y-63654714D01*
X143943142Y-63702333D01*
X143990761Y-63749952D01*
X144038380Y-63845190D01*
X144038380Y-64130904D01*
X143990761Y-64226142D01*
X143943142Y-64273761D01*
X157188000Y-74564761D02*
X157140380Y-74660000D01*
X157140380Y-74802857D01*
X157188000Y-74945714D01*
X157283238Y-75040952D01*
X157378476Y-75088571D01*
X157568952Y-75136190D01*
X157711809Y-75136190D01*
X157902285Y-75088571D01*
X157997523Y-75040952D01*
X158092761Y-74945714D01*
X158140380Y-74802857D01*
X158140380Y-74707619D01*
X158092761Y-74564761D01*
X158045142Y-74517142D01*
X157711809Y-74517142D01*
X157711809Y-74707619D01*
X157854666Y-74136190D02*
X157854666Y-73660000D01*
X158140380Y-74231428D02*
X157140380Y-73898095D01*
X158140380Y-73564761D01*
X158140380Y-72755238D02*
X158140380Y-73231428D01*
X157140380Y-73231428D01*
X157235619Y-72469523D02*
X157188000Y-72421904D01*
X157140380Y-72326666D01*
X157140380Y-72088571D01*
X157188000Y-71993333D01*
X157235619Y-71945714D01*
X157330857Y-71898095D01*
X157426095Y-71898095D01*
X157568952Y-71945714D01*
X158140380Y-72517142D01*
X158140380Y-71898095D01*
X157140380Y-71279047D02*
X157140380Y-71183809D01*
X157188000Y-71088571D01*
X157235619Y-71040952D01*
X157330857Y-70993333D01*
X157521333Y-70945714D01*
X157759428Y-70945714D01*
X157949904Y-70993333D01*
X158045142Y-71040952D01*
X158092761Y-71088571D01*
X158140380Y-71183809D01*
X158140380Y-71279047D01*
X158092761Y-71374285D01*
X158045142Y-71421904D01*
X157949904Y-71469523D01*
X157759428Y-71517142D01*
X157521333Y-71517142D01*
X157330857Y-71469523D01*
X157235619Y-71421904D01*
X157188000Y-71374285D01*
X157140380Y-71279047D01*
X157140380Y-70660000D02*
X158140380Y-70326666D01*
X157140380Y-69993333D01*
X157568952Y-69517142D02*
X157521333Y-69612380D01*
X157473714Y-69660000D01*
X157378476Y-69707619D01*
X157330857Y-69707619D01*
X157235619Y-69660000D01*
X157188000Y-69612380D01*
X157140380Y-69517142D01*
X157140380Y-69326666D01*
X157188000Y-69231428D01*
X157235619Y-69183809D01*
X157330857Y-69136190D01*
X157378476Y-69136190D01*
X157473714Y-69183809D01*
X157521333Y-69231428D01*
X157568952Y-69326666D01*
X157568952Y-69517142D01*
X157616571Y-69612380D01*
X157664190Y-69660000D01*
X157759428Y-69707619D01*
X157949904Y-69707619D01*
X158045142Y-69660000D01*
X158092761Y-69612380D01*
X158140380Y-69517142D01*
X158140380Y-69326666D01*
X158092761Y-69231428D01*
X158045142Y-69183809D01*
X157949904Y-69136190D01*
X157759428Y-69136190D01*
X157664190Y-69183809D01*
X157616571Y-69231428D01*
X157568952Y-69326666D01*
X157616571Y-68374285D02*
X157664190Y-68231428D01*
X157711809Y-68183809D01*
X157807047Y-68136190D01*
X157949904Y-68136190D01*
X158045142Y-68183809D01*
X158092761Y-68231428D01*
X158140380Y-68326666D01*
X158140380Y-68707619D01*
X157140380Y-68707619D01*
X157140380Y-68374285D01*
X157188000Y-68279047D01*
X157235619Y-68231428D01*
X157330857Y-68183809D01*
X157426095Y-68183809D01*
X157521333Y-68231428D01*
X157568952Y-68279047D01*
X157616571Y-68374285D01*
X157616571Y-68707619D01*
X157759428Y-67707619D02*
X157759428Y-66945714D01*
X158140380Y-65945714D02*
X158140380Y-66517142D01*
X158140380Y-66231428D02*
X157140380Y-66231428D01*
X157283238Y-66326666D01*
X157378476Y-66421904D01*
X157426095Y-66517142D01*
X157140380Y-65040952D02*
X157140380Y-65517142D01*
X157616571Y-65564761D01*
X157568952Y-65517142D01*
X157521333Y-65421904D01*
X157521333Y-65183809D01*
X157568952Y-65088571D01*
X157616571Y-65040952D01*
X157711809Y-64993333D01*
X157949904Y-64993333D01*
X158045142Y-65040952D01*
X158092761Y-65088571D01*
X158140380Y-65183809D01*
X158140380Y-65421904D01*
X158092761Y-65517142D01*
X158045142Y-65564761D01*
X158140380Y-64088571D02*
X158140380Y-64564761D01*
X157140380Y-64564761D01*
X158140380Y-63755238D02*
X157140380Y-63755238D01*
X157140380Y-63374285D01*
X157188000Y-63279047D01*
X157235619Y-63231428D01*
X157330857Y-63183809D01*
X157473714Y-63183809D01*
X157568952Y-63231428D01*
X157616571Y-63279047D01*
X157664190Y-63374285D01*
X157664190Y-63755238D01*
X133388571Y-95919380D02*
X133388571Y-94919380D01*
X133388571Y-95395571D02*
X133960000Y-95395571D01*
X133960000Y-95919380D02*
X133960000Y-94919380D01*
X134436190Y-95919380D02*
X134436190Y-94919380D01*
X134769523Y-95633666D01*
X135102857Y-94919380D01*
X135102857Y-95919380D01*
X136007619Y-94919380D02*
X135817142Y-94919380D01*
X135721904Y-94967000D01*
X135674285Y-95014619D01*
X135579047Y-95157476D01*
X135531428Y-95347952D01*
X135531428Y-95728904D01*
X135579047Y-95824142D01*
X135626666Y-95871761D01*
X135721904Y-95919380D01*
X135912380Y-95919380D01*
X136007619Y-95871761D01*
X136055238Y-95824142D01*
X136102857Y-95728904D01*
X136102857Y-95490809D01*
X136055238Y-95395571D01*
X136007619Y-95347952D01*
X135912380Y-95300333D01*
X135721904Y-95300333D01*
X135626666Y-95347952D01*
X135579047Y-95395571D01*
X135531428Y-95490809D01*
X136483809Y-95014619D02*
X136531428Y-94967000D01*
X136626666Y-94919380D01*
X136864761Y-94919380D01*
X136960000Y-94967000D01*
X137007619Y-95014619D01*
X137055238Y-95109857D01*
X137055238Y-95205095D01*
X137007619Y-95347952D01*
X136436190Y-95919380D01*
X137055238Y-95919380D01*
X137626666Y-95347952D02*
X137531428Y-95300333D01*
X137483809Y-95252714D01*
X137436190Y-95157476D01*
X137436190Y-95109857D01*
X137483809Y-95014619D01*
X137531428Y-94967000D01*
X137626666Y-94919380D01*
X137817142Y-94919380D01*
X137912380Y-94967000D01*
X137960000Y-95014619D01*
X138007619Y-95109857D01*
X138007619Y-95157476D01*
X137960000Y-95252714D01*
X137912380Y-95300333D01*
X137817142Y-95347952D01*
X137626666Y-95347952D01*
X137531428Y-95395571D01*
X137483809Y-95443190D01*
X137436190Y-95538428D01*
X137436190Y-95728904D01*
X137483809Y-95824142D01*
X137531428Y-95871761D01*
X137626666Y-95919380D01*
X137817142Y-95919380D01*
X137912380Y-95871761D01*
X137960000Y-95824142D01*
X138007619Y-95728904D01*
X138007619Y-95538428D01*
X137960000Y-95443190D01*
X137912380Y-95395571D01*
X137817142Y-95347952D01*
X138960000Y-95919380D02*
X138388571Y-95919380D01*
X138674285Y-95919380D02*
X138674285Y-94919380D01*
X138579047Y-95062238D01*
X138483809Y-95157476D01*
X138388571Y-95205095D01*
X139340952Y-95014619D02*
X139388571Y-94967000D01*
X139483809Y-94919380D01*
X139721904Y-94919380D01*
X139817142Y-94967000D01*
X139864761Y-95014619D01*
X139912380Y-95109857D01*
X139912380Y-95205095D01*
X139864761Y-95347952D01*
X139293333Y-95919380D01*
X139912380Y-95919380D01*
X140483809Y-95347952D02*
X140388571Y-95300333D01*
X140340952Y-95252714D01*
X140293333Y-95157476D01*
X140293333Y-95109857D01*
X140340952Y-95014619D01*
X140388571Y-94967000D01*
X140483809Y-94919380D01*
X140674285Y-94919380D01*
X140769523Y-94967000D01*
X140817142Y-95014619D01*
X140864761Y-95109857D01*
X140864761Y-95157476D01*
X140817142Y-95252714D01*
X140769523Y-95300333D01*
X140674285Y-95347952D01*
X140483809Y-95347952D01*
X140388571Y-95395571D01*
X140340952Y-95443190D01*
X140293333Y-95538428D01*
X140293333Y-95728904D01*
X140340952Y-95824142D01*
X140388571Y-95871761D01*
X140483809Y-95919380D01*
X140674285Y-95919380D01*
X140769523Y-95871761D01*
X140817142Y-95824142D01*
X140864761Y-95728904D01*
X140864761Y-95538428D01*
X140817142Y-95443190D01*
X140769523Y-95395571D01*
X140674285Y-95347952D01*
X141245714Y-95633666D02*
X141721904Y-95633666D01*
X141150476Y-95919380D02*
X141483809Y-94919380D01*
X141817142Y-95919380D01*
X142626666Y-95919380D02*
X142150476Y-95919380D01*
X142150476Y-94919380D01*
X143293333Y-95395571D02*
X142960000Y-95395571D01*
X142960000Y-95919380D02*
X142960000Y-94919380D01*
X143436190Y-94919380D01*
X143817142Y-95919380D02*
X143817142Y-94919380D01*
X144198095Y-94919380D01*
X144293333Y-94967000D01*
X144340952Y-95014619D01*
X144388571Y-95109857D01*
X144388571Y-95252714D01*
X144340952Y-95347952D01*
X144293333Y-95395571D01*
X144198095Y-95443190D01*
X143817142Y-95443190D01*
X144817142Y-95538428D02*
X145579047Y-95538428D01*
X146198095Y-95347952D02*
X146102857Y-95300333D01*
X146055238Y-95252714D01*
X146007619Y-95157476D01*
X146007619Y-95109857D01*
X146055238Y-95014619D01*
X146102857Y-94967000D01*
X146198095Y-94919380D01*
X146388571Y-94919380D01*
X146483809Y-94967000D01*
X146531428Y-95014619D01*
X146579047Y-95109857D01*
X146579047Y-95157476D01*
X146531428Y-95252714D01*
X146483809Y-95300333D01*
X146388571Y-95347952D01*
X146198095Y-95347952D01*
X146102857Y-95395571D01*
X146055238Y-95443190D01*
X146007619Y-95538428D01*
X146007619Y-95728904D01*
X146055238Y-95824142D01*
X146102857Y-95871761D01*
X146198095Y-95919380D01*
X146388571Y-95919380D01*
X146483809Y-95871761D01*
X146531428Y-95824142D01*
X146579047Y-95728904D01*
X146579047Y-95538428D01*
X146531428Y-95443190D01*
X146483809Y-95395571D01*
X146388571Y-95347952D01*
X115619476Y-119395761D02*
X115762333Y-119443380D01*
X116000428Y-119443380D01*
X116095666Y-119395761D01*
X116143285Y-119348142D01*
X116190904Y-119252904D01*
X116190904Y-119157666D01*
X116143285Y-119062428D01*
X116095666Y-119014809D01*
X116000428Y-118967190D01*
X115809952Y-118919571D01*
X115714714Y-118871952D01*
X115667095Y-118824333D01*
X115619476Y-118729095D01*
X115619476Y-118633857D01*
X115667095Y-118538619D01*
X115714714Y-118491000D01*
X115809952Y-118443380D01*
X116048047Y-118443380D01*
X116190904Y-118491000D01*
X116571857Y-119395761D02*
X116714714Y-119443380D01*
X116952809Y-119443380D01*
X117048047Y-119395761D01*
X117095666Y-119348142D01*
X117143285Y-119252904D01*
X117143285Y-119157666D01*
X117095666Y-119062428D01*
X117048047Y-119014809D01*
X116952809Y-118967190D01*
X116762333Y-118919571D01*
X116667095Y-118871952D01*
X116619476Y-118824333D01*
X116571857Y-118729095D01*
X116571857Y-118633857D01*
X116619476Y-118538619D01*
X116667095Y-118491000D01*
X116762333Y-118443380D01*
X117000428Y-118443380D01*
X117143285Y-118491000D01*
X117429000Y-118443380D02*
X118000428Y-118443380D01*
X117714714Y-119443380D02*
X117714714Y-118443380D01*
X119048047Y-118538619D02*
X119095666Y-118491000D01*
X119190904Y-118443380D01*
X119429000Y-118443380D01*
X119524238Y-118491000D01*
X119571857Y-118538619D01*
X119619476Y-118633857D01*
X119619476Y-118729095D01*
X119571857Y-118871952D01*
X119000428Y-119443380D01*
X119619476Y-119443380D01*
X120095666Y-119443380D02*
X120286142Y-119443380D01*
X120381380Y-119395761D01*
X120429000Y-119348142D01*
X120524238Y-119205285D01*
X120571857Y-119014809D01*
X120571857Y-118633857D01*
X120524238Y-118538619D01*
X120476619Y-118491000D01*
X120381380Y-118443380D01*
X120190904Y-118443380D01*
X120095666Y-118491000D01*
X120048047Y-118538619D01*
X120000428Y-118633857D01*
X120000428Y-118871952D01*
X120048047Y-118967190D01*
X120095666Y-119014809D01*
X120190904Y-119062428D01*
X120381380Y-119062428D01*
X120476619Y-119014809D01*
X120524238Y-118967190D01*
X120571857Y-118871952D01*
X121000428Y-118919571D02*
X121333761Y-118919571D01*
X121476619Y-119443380D02*
X121000428Y-119443380D01*
X121000428Y-118443380D01*
X121476619Y-118443380D01*
X121905190Y-118919571D02*
X122238523Y-118919571D01*
X122381380Y-119443380D02*
X121905190Y-119443380D01*
X121905190Y-118443380D01*
X122381380Y-118443380D01*
X123000428Y-118443380D02*
X123095666Y-118443380D01*
X123190904Y-118491000D01*
X123238523Y-118538619D01*
X123286142Y-118633857D01*
X123333761Y-118824333D01*
X123333761Y-119062428D01*
X123286142Y-119252904D01*
X123238523Y-119348142D01*
X123190904Y-119395761D01*
X123095666Y-119443380D01*
X123000428Y-119443380D01*
X122905190Y-119395761D01*
X122857571Y-119348142D01*
X122809952Y-119252904D01*
X122762333Y-119062428D01*
X122762333Y-118824333D01*
X122809952Y-118633857D01*
X122857571Y-118538619D01*
X122905190Y-118491000D01*
X123000428Y-118443380D01*
X123714714Y-118538619D02*
X123762333Y-118491000D01*
X123857571Y-118443380D01*
X124095666Y-118443380D01*
X124190904Y-118491000D01*
X124238523Y-118538619D01*
X124286142Y-118633857D01*
X124286142Y-118729095D01*
X124238523Y-118871952D01*
X123667095Y-119443380D01*
X124286142Y-119443380D01*
X124905190Y-118443380D02*
X125000428Y-118443380D01*
X125095666Y-118491000D01*
X125143285Y-118538619D01*
X125190904Y-118633857D01*
X125238523Y-118824333D01*
X125238523Y-119062428D01*
X125190904Y-119252904D01*
X125143285Y-119348142D01*
X125095666Y-119395761D01*
X125000428Y-119443380D01*
X124905190Y-119443380D01*
X124809952Y-119395761D01*
X124762333Y-119348142D01*
X124714714Y-119252904D01*
X124667095Y-119062428D01*
X124667095Y-118824333D01*
X124714714Y-118633857D01*
X124762333Y-118538619D01*
X124809952Y-118491000D01*
X124905190Y-118443380D01*
X164284333Y-109246380D02*
X164951000Y-109246380D01*
X164522428Y-110246380D01*
X165474809Y-109674952D02*
X165379571Y-109627333D01*
X165331952Y-109579714D01*
X165284333Y-109484476D01*
X165284333Y-109436857D01*
X165331952Y-109341619D01*
X165379571Y-109294000D01*
X165474809Y-109246380D01*
X165665285Y-109246380D01*
X165760523Y-109294000D01*
X165808142Y-109341619D01*
X165855761Y-109436857D01*
X165855761Y-109484476D01*
X165808142Y-109579714D01*
X165760523Y-109627333D01*
X165665285Y-109674952D01*
X165474809Y-109674952D01*
X165379571Y-109722571D01*
X165331952Y-109770190D01*
X165284333Y-109865428D01*
X165284333Y-110055904D01*
X165331952Y-110151142D01*
X165379571Y-110198761D01*
X165474809Y-110246380D01*
X165665285Y-110246380D01*
X165760523Y-110198761D01*
X165808142Y-110151142D01*
X165855761Y-110055904D01*
X165855761Y-109865428D01*
X165808142Y-109770190D01*
X165760523Y-109722571D01*
X165665285Y-109674952D01*
X166760523Y-110246380D02*
X166284333Y-110246380D01*
X166284333Y-109246380D01*
X167284333Y-109246380D02*
X167379571Y-109246380D01*
X167474809Y-109294000D01*
X167522428Y-109341619D01*
X167570047Y-109436857D01*
X167617666Y-109627333D01*
X167617666Y-109865428D01*
X167570047Y-110055904D01*
X167522428Y-110151142D01*
X167474809Y-110198761D01*
X167379571Y-110246380D01*
X167284333Y-110246380D01*
X167189095Y-110198761D01*
X167141476Y-110151142D01*
X167093857Y-110055904D01*
X167046238Y-109865428D01*
X167046238Y-109627333D01*
X167093857Y-109436857D01*
X167141476Y-109341619D01*
X167189095Y-109294000D01*
X167284333Y-109246380D01*
X168522428Y-109246380D02*
X168046238Y-109246380D01*
X167998619Y-109722571D01*
X168046238Y-109674952D01*
X168141476Y-109627333D01*
X168379571Y-109627333D01*
X168474809Y-109674952D01*
X168522428Y-109722571D01*
X168570047Y-109817809D01*
X168570047Y-110055904D01*
X168522428Y-110151142D01*
X168474809Y-110198761D01*
X168379571Y-110246380D01*
X168141476Y-110246380D01*
X168046238Y-110198761D01*
X167998619Y-110151142D01*
X154527428Y-84479380D02*
X153956000Y-84479380D01*
X154241714Y-84479380D02*
X154241714Y-83479380D01*
X154146476Y-83622238D01*
X154051238Y-83717476D01*
X153956000Y-83765095D01*
X155146476Y-83479380D02*
X155241714Y-83479380D01*
X155336952Y-83527000D01*
X155384571Y-83574619D01*
X155432190Y-83669857D01*
X155479809Y-83860333D01*
X155479809Y-84098428D01*
X155432190Y-84288904D01*
X155384571Y-84384142D01*
X155336952Y-84431761D01*
X155241714Y-84479380D01*
X155146476Y-84479380D01*
X155051238Y-84431761D01*
X155003619Y-84384142D01*
X154956000Y-84288904D01*
X154908380Y-84098428D01*
X154908380Y-83860333D01*
X154956000Y-83669857D01*
X155003619Y-83574619D01*
X155051238Y-83527000D01*
X155146476Y-83479380D01*
X156098857Y-83479380D02*
X156194095Y-83479380D01*
X156289333Y-83527000D01*
X156336952Y-83574619D01*
X156384571Y-83669857D01*
X156432190Y-83860333D01*
X156432190Y-84098428D01*
X156384571Y-84288904D01*
X156336952Y-84384142D01*
X156289333Y-84431761D01*
X156194095Y-84479380D01*
X156098857Y-84479380D01*
X156003619Y-84431761D01*
X155956000Y-84384142D01*
X155908380Y-84288904D01*
X155860761Y-84098428D01*
X155860761Y-83860333D01*
X155908380Y-83669857D01*
X155956000Y-83574619D01*
X156003619Y-83527000D01*
X156098857Y-83479380D01*
X157622666Y-83812714D02*
X157622666Y-84479380D01*
X157622666Y-83907952D02*
X157670285Y-83860333D01*
X157765523Y-83812714D01*
X157908380Y-83812714D01*
X158003619Y-83860333D01*
X158051238Y-83955571D01*
X158051238Y-84479380D01*
X158860761Y-83955571D02*
X158527428Y-83955571D01*
X158527428Y-84479380D02*
X158527428Y-83479380D01*
X159003619Y-83479380D01*
X140388428Y-84508380D02*
X139817000Y-84508380D01*
X140102714Y-84508380D02*
X140102714Y-83508380D01*
X140007476Y-83651238D01*
X139912238Y-83746476D01*
X139817000Y-83794095D01*
X141007476Y-83508380D02*
X141102714Y-83508380D01*
X141197952Y-83556000D01*
X141245571Y-83603619D01*
X141293190Y-83698857D01*
X141340809Y-83889333D01*
X141340809Y-84127428D01*
X141293190Y-84317904D01*
X141245571Y-84413142D01*
X141197952Y-84460761D01*
X141102714Y-84508380D01*
X141007476Y-84508380D01*
X140912238Y-84460761D01*
X140864619Y-84413142D01*
X140817000Y-84317904D01*
X140769380Y-84127428D01*
X140769380Y-83889333D01*
X140817000Y-83698857D01*
X140864619Y-83603619D01*
X140912238Y-83556000D01*
X141007476Y-83508380D01*
X141959857Y-83508380D02*
X142055095Y-83508380D01*
X142150333Y-83556000D01*
X142197952Y-83603619D01*
X142245571Y-83698857D01*
X142293190Y-83889333D01*
X142293190Y-84127428D01*
X142245571Y-84317904D01*
X142197952Y-84413142D01*
X142150333Y-84460761D01*
X142055095Y-84508380D01*
X141959857Y-84508380D01*
X141864619Y-84460761D01*
X141817000Y-84413142D01*
X141769380Y-84317904D01*
X141721761Y-84127428D01*
X141721761Y-83889333D01*
X141769380Y-83698857D01*
X141817000Y-83603619D01*
X141864619Y-83556000D01*
X141959857Y-83508380D01*
X143483666Y-83841714D02*
X143483666Y-84508380D01*
X143483666Y-83936952D02*
X143531285Y-83889333D01*
X143626523Y-83841714D01*
X143769380Y-83841714D01*
X143864619Y-83889333D01*
X143912238Y-83984571D01*
X143912238Y-84508380D01*
X144721761Y-83984571D02*
X144388428Y-83984571D01*
X144388428Y-84508380D02*
X144388428Y-83508380D01*
X144864619Y-83508380D01*
X126211428Y-84543380D02*
X125640000Y-84543380D01*
X125925714Y-84543380D02*
X125925714Y-83543380D01*
X125830476Y-83686238D01*
X125735238Y-83781476D01*
X125640000Y-83829095D01*
X126830476Y-83543380D02*
X126925714Y-83543380D01*
X127020952Y-83591000D01*
X127068571Y-83638619D01*
X127116190Y-83733857D01*
X127163809Y-83924333D01*
X127163809Y-84162428D01*
X127116190Y-84352904D01*
X127068571Y-84448142D01*
X127020952Y-84495761D01*
X126925714Y-84543380D01*
X126830476Y-84543380D01*
X126735238Y-84495761D01*
X126687619Y-84448142D01*
X126640000Y-84352904D01*
X126592380Y-84162428D01*
X126592380Y-83924333D01*
X126640000Y-83733857D01*
X126687619Y-83638619D01*
X126735238Y-83591000D01*
X126830476Y-83543380D01*
X127782857Y-83543380D02*
X127878095Y-83543380D01*
X127973333Y-83591000D01*
X128020952Y-83638619D01*
X128068571Y-83733857D01*
X128116190Y-83924333D01*
X128116190Y-84162428D01*
X128068571Y-84352904D01*
X128020952Y-84448142D01*
X127973333Y-84495761D01*
X127878095Y-84543380D01*
X127782857Y-84543380D01*
X127687619Y-84495761D01*
X127640000Y-84448142D01*
X127592380Y-84352904D01*
X127544761Y-84162428D01*
X127544761Y-83924333D01*
X127592380Y-83733857D01*
X127640000Y-83638619D01*
X127687619Y-83591000D01*
X127782857Y-83543380D01*
X129306666Y-83876714D02*
X129306666Y-84543380D01*
X129306666Y-83971952D02*
X129354285Y-83924333D01*
X129449523Y-83876714D01*
X129592380Y-83876714D01*
X129687619Y-83924333D01*
X129735238Y-84019571D01*
X129735238Y-84543380D01*
X130544761Y-84019571D02*
X130211428Y-84019571D01*
X130211428Y-84543380D02*
X130211428Y-83543380D01*
X130687619Y-83543380D01*
X160060380Y-126079571D02*
X160060380Y-126651000D01*
X160060380Y-126365285D02*
X159060380Y-126365285D01*
X159203238Y-126460523D01*
X159298476Y-126555761D01*
X159346095Y-126651000D01*
X159060380Y-125460523D02*
X159060380Y-125365285D01*
X159108000Y-125270047D01*
X159155619Y-125222428D01*
X159250857Y-125174809D01*
X159441333Y-125127190D01*
X159679428Y-125127190D01*
X159869904Y-125174809D01*
X159965142Y-125222428D01*
X160012761Y-125270047D01*
X160060380Y-125365285D01*
X160060380Y-125460523D01*
X160012761Y-125555761D01*
X159965142Y-125603380D01*
X159869904Y-125651000D01*
X159679428Y-125698619D01*
X159441333Y-125698619D01*
X159250857Y-125651000D01*
X159155619Y-125603380D01*
X159108000Y-125555761D01*
X159060380Y-125460523D01*
X159060380Y-124508142D02*
X159060380Y-124412904D01*
X159108000Y-124317666D01*
X159155619Y-124270047D01*
X159250857Y-124222428D01*
X159441333Y-124174809D01*
X159679428Y-124174809D01*
X159869904Y-124222428D01*
X159965142Y-124270047D01*
X160012761Y-124317666D01*
X160060380Y-124412904D01*
X160060380Y-124508142D01*
X160012761Y-124603380D01*
X159965142Y-124651000D01*
X159869904Y-124698619D01*
X159679428Y-124746238D01*
X159441333Y-124746238D01*
X159250857Y-124698619D01*
X159155619Y-124651000D01*
X159108000Y-124603380D01*
X159060380Y-124508142D01*
X159393714Y-122984333D02*
X160060380Y-122984333D01*
X159488952Y-122984333D02*
X159441333Y-122936714D01*
X159393714Y-122841476D01*
X159393714Y-122698619D01*
X159441333Y-122603380D01*
X159536571Y-122555761D01*
X160060380Y-122555761D01*
X159536571Y-121746238D02*
X159536571Y-122079571D01*
X160060380Y-122079571D02*
X159060380Y-122079571D01*
X159060380Y-121603380D01*
X156882380Y-102401571D02*
X156882380Y-102973000D01*
X156882380Y-102687285D02*
X155882380Y-102687285D01*
X156025238Y-102782523D01*
X156120476Y-102877761D01*
X156168095Y-102973000D01*
X155882380Y-101782523D02*
X155882380Y-101687285D01*
X155930000Y-101592047D01*
X155977619Y-101544428D01*
X156072857Y-101496809D01*
X156263333Y-101449190D01*
X156501428Y-101449190D01*
X156691904Y-101496809D01*
X156787142Y-101544428D01*
X156834761Y-101592047D01*
X156882380Y-101687285D01*
X156882380Y-101782523D01*
X156834761Y-101877761D01*
X156787142Y-101925380D01*
X156691904Y-101973000D01*
X156501428Y-102020619D01*
X156263333Y-102020619D01*
X156072857Y-101973000D01*
X155977619Y-101925380D01*
X155930000Y-101877761D01*
X155882380Y-101782523D01*
X155882380Y-100830142D02*
X155882380Y-100734904D01*
X155930000Y-100639666D01*
X155977619Y-100592047D01*
X156072857Y-100544428D01*
X156263333Y-100496809D01*
X156501428Y-100496809D01*
X156691904Y-100544428D01*
X156787142Y-100592047D01*
X156834761Y-100639666D01*
X156882380Y-100734904D01*
X156882380Y-100830142D01*
X156834761Y-100925380D01*
X156787142Y-100973000D01*
X156691904Y-101020619D01*
X156501428Y-101068238D01*
X156263333Y-101068238D01*
X156072857Y-101020619D01*
X155977619Y-100973000D01*
X155930000Y-100925380D01*
X155882380Y-100830142D01*
X156215714Y-99306333D02*
X156882380Y-99306333D01*
X156310952Y-99306333D02*
X156263333Y-99258714D01*
X156215714Y-99163476D01*
X156215714Y-99020619D01*
X156263333Y-98925380D01*
X156358571Y-98877761D01*
X156882380Y-98877761D01*
X156358571Y-98068238D02*
X156358571Y-98401571D01*
X156882380Y-98401571D02*
X155882380Y-98401571D01*
X155882380Y-97925380D01*
D11*
X114164900Y-112603100D02*
X114164900Y-125303100D01*
X114164900Y-125303100D02*
X154804900Y-125303100D01*
X154804900Y-125303100D02*
X154804900Y-112603100D01*
X154804900Y-112603100D02*
X114164900Y-112603100D01*
X114164900Y-117683100D02*
X114164900Y-120223100D01*
X160001200Y-79288700D02*
X154921200Y-79288700D01*
X154921200Y-79288700D02*
X154921200Y-48808700D01*
X154921200Y-48808700D02*
X160001200Y-48808700D01*
X160001200Y-48808700D02*
X160001200Y-79288700D01*
X158731200Y-79288700D02*
X156191200Y-79288700D01*
X145951800Y-79328500D02*
X140871800Y-79328500D01*
X140871800Y-79328500D02*
X140871800Y-53928500D01*
X140871800Y-53928500D02*
X145951800Y-53928500D01*
X145951800Y-53928500D02*
X145951800Y-79328500D01*
X144681800Y-79328500D02*
X142141800Y-79328500D01*
X131942100Y-79328500D02*
X126862100Y-79328500D01*
X126862100Y-79328500D02*
X126862100Y-53928500D01*
X126862100Y-53928500D02*
X131942100Y-53928500D01*
X131942100Y-53928500D02*
X131942100Y-79328500D01*
X130672100Y-79328500D02*
X128132100Y-79328500D01*
D12*
X168735300Y-129787800D02*
G75*
G03*
X168735300Y-129787800I-4603800J0D01*
G01*
X118570200Y-44618500D02*
X122300800Y-44618500D01*
X122300800Y-44618500D02*
X122300800Y-47237800D01*
X122300800Y-47237800D02*
X118570200Y-47237800D01*
X118570200Y-47237800D02*
X118570200Y-44618500D01*
X132619600Y-42197500D02*
X135159600Y-42197500D01*
X135159600Y-42197500D02*
X135159600Y-44697800D01*
X135159600Y-44697800D02*
X132619600Y-44697800D01*
X132619600Y-44697800D02*
X132619600Y-42197500D01*
X135953300Y-42197500D02*
X138453600Y-42197500D01*
X138453600Y-42197500D02*
X138453600Y-44737500D01*
X138453600Y-44737500D02*
X135953300Y-44737500D01*
X135953300Y-44737500D02*
X135953300Y-42197500D01*
X138929900Y-42237200D02*
X141509600Y-42237200D01*
X141509600Y-42237200D02*
X141509600Y-44777200D01*
X141509600Y-44777200D02*
X138929900Y-44777200D01*
X138929900Y-44777200D02*
X138929900Y-42237200D01*
X142025500Y-42237200D02*
X144605200Y-42237200D01*
X144605200Y-42237200D02*
X144605200Y-44777200D01*
X144605200Y-44777200D02*
X142025500Y-44777200D01*
X142025500Y-44777200D02*
X142025500Y-42237200D01*
X145279900Y-42197500D02*
X147978600Y-42197500D01*
X147978600Y-42197500D02*
X147978600Y-44816900D01*
X147978600Y-44816900D02*
X145279900Y-44816900D01*
X145279900Y-44816900D02*
X145279900Y-42197500D01*
X145319600Y-49896900D02*
X149169300Y-49896900D01*
X149169300Y-49896900D02*
X149169300Y-52436900D01*
X149169300Y-52436900D02*
X145319600Y-52436900D01*
X145319600Y-52436900D02*
X145319600Y-49896900D01*
X140874600Y-53746600D02*
X145954600Y-53746600D01*
X145954600Y-53746600D02*
X145954600Y-79305300D01*
X145954600Y-79305300D02*
X140874600Y-79305300D01*
X140874600Y-79305300D02*
X140874600Y-53746600D01*
X142144600Y-79265600D02*
X142263600Y-79265600D01*
X142263600Y-79265600D02*
X143414600Y-78114700D01*
X143414600Y-78114700D02*
X143454300Y-78114700D01*
X143454300Y-78114700D02*
X144644900Y-79305300D01*
X128214300Y-79146600D02*
X129365200Y-77995600D01*
X129365200Y-77995600D02*
X130595500Y-79225900D01*
X131944900Y-79265600D02*
X126785500Y-79265600D01*
X126785500Y-79265600D02*
X126785500Y-53667200D01*
X126785500Y-53667200D02*
X131944900Y-53667200D01*
X131944900Y-53667200D02*
X131944900Y-79265600D01*
X154923900Y-48745900D02*
X159964300Y-48745900D01*
X159964300Y-48745900D02*
X159964300Y-79345000D01*
X159964300Y-79345000D02*
X154923900Y-79345000D01*
X154923900Y-79345000D02*
X154923900Y-48745900D01*
X156035200Y-79345000D02*
X156233600Y-79345000D01*
X156233600Y-79345000D02*
X157424300Y-78154400D01*
X157424300Y-78154400D02*
X158614900Y-79345000D01*
X140160200Y-81845300D02*
X141469900Y-81845300D01*
X141469900Y-81845300D02*
X141469900Y-80694400D01*
X141469900Y-80694400D02*
X141469900Y-83075600D01*
X142739900Y-80654700D02*
X142739900Y-83115300D01*
X142739900Y-83115300D02*
X142739900Y-81845300D01*
X142739900Y-81845300D02*
X144089300Y-81845300D01*
X154169900Y-81885000D02*
X155479600Y-81885000D01*
X155479600Y-81885000D02*
X155479600Y-80734100D01*
X155479600Y-80734100D02*
X155479600Y-83115300D01*
X156749600Y-80694400D02*
X156749600Y-83155000D01*
X156749600Y-83155000D02*
X156749600Y-81885000D01*
X156749600Y-81885000D02*
X158098900Y-81885000D01*
X126150500Y-81805600D02*
X127460200Y-81805600D01*
X127460200Y-81805600D02*
X127460200Y-80654700D01*
X127460200Y-80654700D02*
X127460200Y-83035900D01*
X128730200Y-80615000D02*
X128730200Y-83075600D01*
X128730200Y-83075600D02*
X128730200Y-81805600D01*
X128730200Y-81805600D02*
X130079600Y-81805600D01*
X124245500Y-44062800D02*
X126825200Y-44062800D01*
X124245500Y-45332800D02*
X126825200Y-45332800D01*
X128095200Y-44102500D02*
X130674900Y-44102500D01*
X128095200Y-45372500D02*
X130674900Y-45372500D01*
X154209600Y-98712500D02*
X154209600Y-99863500D01*
X154209600Y-99863500D02*
X152979300Y-99863500D01*
X152979300Y-99863500D02*
X155439900Y-99863500D01*
X154209600Y-102443100D02*
X154209600Y-101093800D01*
X154209600Y-101093800D02*
X152939600Y-101093800D01*
X152939600Y-101093800D02*
X155439900Y-101093800D01*
X157344900Y-122366300D02*
X157344900Y-123517200D01*
X157344900Y-123517200D02*
X156114600Y-123517200D01*
X156114600Y-123517200D02*
X158575200Y-123517200D01*
X157344900Y-126096900D02*
X157344900Y-124747500D01*
X157344900Y-124747500D02*
X156074900Y-124747500D01*
X156074900Y-124747500D02*
X158575200Y-124747500D01*
X164329900Y-108356600D02*
X168338300Y-108356600D01*
X168312200Y-108376700D02*
G75*
G03*
X164383400Y-108376700I-1964400J1964400D01*
G01*
D13*
X162742400Y-106649900D02*
X162075700Y-107316500D01*
X162075700Y-107316500D02*
X162075700Y-105538800D01*
D14*
X116228600Y-95134400D02*
X116228600Y-95934400D01*
X116228600Y-95934400D02*
X116145300Y-95934400D01*
X116145300Y-95934400D02*
X115978600Y-95834400D01*
X115978600Y-95834400D02*
X115478600Y-95234400D01*
X115478600Y-95234400D02*
X115312000Y-95134400D01*
X115312000Y-95134400D02*
X115145300Y-95134400D01*
X115145300Y-95134400D02*
X114978600Y-95234400D01*
X114978600Y-95234400D02*
X114895300Y-95434400D01*
X114895300Y-95434400D02*
X114895300Y-95634400D01*
X114895300Y-95634400D02*
X114978600Y-95834400D01*
X114978600Y-95834400D02*
X115145300Y-95934400D01*
X114895300Y-93967700D02*
X114895300Y-94767700D01*
X114895300Y-94767700D02*
X115478600Y-94767700D01*
X115478600Y-94767700D02*
X115478600Y-94667700D01*
X115478600Y-94667700D02*
X115395300Y-94467700D01*
X115395300Y-94467700D02*
X115395300Y-94267700D01*
X115395300Y-94267700D02*
X115478600Y-94067700D01*
X115478600Y-94067700D02*
X115645300Y-93967700D01*
X115645300Y-93967700D02*
X115978600Y-93967700D01*
X115978600Y-93967700D02*
X116145300Y-94067700D01*
X116145300Y-94067700D02*
X116228600Y-94267700D01*
X116228600Y-94267700D02*
X116228600Y-94467700D01*
X116228600Y-94467700D02*
X116145300Y-94667700D01*
X116145300Y-94667700D02*
X115978600Y-94767700D01*
X121030900Y-95855000D02*
X120530900Y-95355000D01*
X120530900Y-95355000D02*
X121864300Y-95355000D01*
X120780900Y-94988300D02*
X120614300Y-94888300D01*
X120614300Y-94888300D02*
X120530900Y-94688300D01*
X120530900Y-94688300D02*
X120530900Y-94488300D01*
X120530900Y-94488300D02*
X120614300Y-94288300D01*
X120614300Y-94288300D02*
X120780900Y-94188300D01*
X120780900Y-94188300D02*
X120947600Y-94188300D01*
X120947600Y-94188300D02*
X121114300Y-94288300D01*
X121114300Y-94288300D02*
X121197600Y-94488300D01*
X121197600Y-94488300D02*
X121280900Y-94288300D01*
X121280900Y-94288300D02*
X121447600Y-94188300D01*
X121447600Y-94188300D02*
X121614300Y-94188300D01*
X121614300Y-94188300D02*
X121780900Y-94288300D01*
X121780900Y-94288300D02*
X121864300Y-94488300D01*
X121864300Y-94488300D02*
X121864300Y-94688300D01*
X121864300Y-94688300D02*
X121780900Y-94888300D01*
X121780900Y-94888300D02*
X121614300Y-94988300D01*
X115355600Y-54937200D02*
X114855600Y-54437200D01*
X114855600Y-54437200D02*
X116188900Y-54437200D01*
X116188900Y-53470500D02*
X114855600Y-53470500D01*
X114855600Y-53470500D02*
X115688900Y-54070500D01*
X115688900Y-54070500D02*
X115855600Y-54070500D01*
X115855600Y-54070500D02*
X115855600Y-53270500D01*
X121030900Y-54540300D02*
X120530900Y-54040300D01*
X120530900Y-54040300D02*
X121864300Y-54040300D01*
D12*
X112220200Y-47793500D02*
X123729600Y-47793500D01*
X123729600Y-47793500D02*
X123729600Y-101292200D01*
X123729600Y-101292200D02*
X112220200Y-101292200D01*
X112220200Y-101292200D02*
X112220200Y-47793500D01*
X129246100Y-114944700D02*
X139683900Y-114944700D01*
X139683900Y-114944700D02*
X139683900Y-122802800D01*
X139683900Y-122802800D02*
X129246100Y-122802800D01*
X129246100Y-122802800D02*
X129246100Y-114944700D01*
X139128300Y-118675300D02*
X139683900Y-118675300D01*
X139683900Y-118675300D02*
X139683900Y-119191300D01*
X139683900Y-119191300D02*
X139128300Y-119191300D01*
X139128300Y-119191300D02*
X139128300Y-118675300D01*
X130000200Y-92084700D02*
X150439300Y-92084700D01*
X150439300Y-92084700D02*
X150439300Y-101093800D01*
X150439300Y-101093800D02*
X130000200Y-101093800D01*
X130000200Y-101093800D02*
X130000200Y-92084700D01*
X130000200Y-92084700D02*
X130000200Y-90775000D01*
X130000200Y-90775000D02*
X149010500Y-90775000D01*
X149010500Y-90775000D02*
X150359900Y-92124400D01*
X122618300Y-55135600D02*
X114442700Y-56485000D01*
X114442700Y-56485000D02*
X114403000Y-92838800D01*
X114403000Y-92838800D02*
X122618300Y-93989700D01*
X122618300Y-93989700D02*
X122618300Y-55135600D01*
X114045800Y-112404700D02*
X154844600Y-112404700D01*
X154844600Y-112404700D02*
X154844600Y-125461900D01*
X154844600Y-125461900D02*
X114045800Y-125461900D01*
X114045800Y-125461900D02*
X114045800Y-112404700D01*
X154804900Y-117802200D02*
X154765200Y-117802200D01*
X154765200Y-117802200D02*
X153574600Y-118992800D01*
X153574600Y-118992800D02*
X154804900Y-120223100D01*
M02*
