M48
; DRILL file {KiCad (6.0.2)} date Fri May  6 23:35:57 2022
; FORMAT={-:-/ absolute / metric / decimal}
; #@! TF.CreationDate,2022-05-06T23:35:57-05:00
; #@! TF.GenerationSoftware,Kicad,Pcbnew,(6.0.2)
; #@! TF.FileFunction,Plated,1,2,PTH
FMAT,2
METRIC
; #@! TA.AperFunction,Plated,PTH,ViaDrill
T1C0.500
; #@! TA.AperFunction,Plated,PTH,ViaDrill
T2C0.720
; #@! TA.AperFunction,Plated,PTH,ViaDrill
T3C0.800
; #@! TA.AperFunction,Plated,PTH,ViaDrill
T4C1.000
; #@! TA.AperFunction,Plated,PTH,ViaDrill
T5C1.080
; #@! TA.AperFunction,Plated,PTH,ViaDrill
T6C1.300
; #@! TA.AperFunction,Plated,PTH,ViaDrill
T7C3.250
; #@! TA.AperFunction,Plated,PTH,ViaDrill
T8C3.370
%
G90
G05
T1
X116.503Y-109.35
X118.963Y-128.44
X119.043Y-109.35
X121.543Y-128.48
X121.583Y-109.35
X124.123Y-109.35
X124.803Y-92.8
X125.393Y-113.87
X126.113Y-91.53
X126.663Y-128.48
X126.703Y-109.39
X127.303Y-92.8
X127.743Y-113.6
X128.653Y-91.49
X129.163Y-128.52
X129.963Y-92.84
X129.963Y-116.41
X130.243Y-120.3
X131.783Y-92.84
X131.783Y-121.57
X131.823Y-109.39
X132.303Y-118.99
X133.173Y-91.61
X134.323Y-128.56
X134.363Y-109.43
X134.403Y-92.88
X135.713Y-91.53
X136.313Y-97.36
X136.863Y-118.79
X136.863Y-128.56
X136.903Y-109.47
X136.943Y-92.84
X136.983Y-81.96
X138.253Y-91.65
X138.613Y-117.25
X138.893Y-119.59
X138.893Y-121.85
X139.363Y-128.56
X139.403Y-109.47
X139.483Y-92.88
X140.833Y-91.57
X140.913Y-124.43
X141.943Y-128.64
X141.983Y-109.47
X142.063Y-76.25
X142.063Y-92.92
X143.253Y-124.19
X143.333Y-78.15
X143.333Y-91.65
X144.563Y-113.95
X144.603Y-75.02
X144.603Y-92.92
X145.913Y-91.65
X147.063Y-129.91
X147.183Y-92.96
X147.223Y-49.34
X147.783Y-85.85
X147.783Y-100.54
X147.823Y-81.45
X148.413Y-106.33
X148.533Y-91.69
X149.053Y-99.35
X149.643Y-109.51
X150.283Y-131.18
X150.953Y-107.01
X151.673Y-69.26
X153.493Y-116.57
X154.763Y-119.15
X155.563Y-69.86
X156.793Y-67.32
X158.103Y-57.12
X161.153Y-98.12
X161.833Y-88.55
X170.243Y-50.1
T2
X115.433Y-111.33
X115.433Y-126.57
X117.973Y-111.33
X117.973Y-126.57
X120.513Y-111.33
X120.513Y-126.57
X123.053Y-111.33
X123.053Y-126.57
X125.593Y-55.2
X125.593Y-57.74
X125.593Y-60.28
X125.593Y-62.82
X125.593Y-65.36
X125.593Y-67.9
X125.593Y-70.44
X125.593Y-72.98
X125.593Y-75.52
X125.593Y-78.06
X125.593Y-111.33
X125.593Y-126.57
X128.133Y-111.33
X128.133Y-126.57
X130.673Y-111.33
X130.673Y-126.57
X133.213Y-55.2
X133.213Y-57.74
X133.213Y-60.28
X133.213Y-62.82
X133.213Y-65.36
X133.213Y-67.9
X133.213Y-70.44
X133.213Y-72.98
X133.213Y-75.52
X133.213Y-78.06
X133.213Y-111.33
X133.213Y-126.57
X135.753Y-111.33
X135.753Y-126.57
X138.293Y-111.33
X138.293Y-126.57
X139.603Y-55.2
X139.603Y-57.74
X139.603Y-60.28
X139.603Y-62.82
X139.603Y-65.36
X139.603Y-67.9
X139.603Y-70.44
X139.603Y-72.98
X139.603Y-75.52
X139.603Y-78.06
X140.833Y-111.33
X140.833Y-126.57
X143.373Y-111.33
X143.373Y-126.57
X145.913Y-111.33
X145.913Y-126.57
X147.223Y-55.2
X147.223Y-57.74
X147.223Y-60.28
X147.223Y-62.82
X147.223Y-65.36
X147.223Y-67.9
X147.223Y-70.44
X147.223Y-72.98
X147.223Y-75.52
X147.223Y-78.06
X148.453Y-111.33
X148.453Y-126.57
X150.993Y-111.33
X150.993Y-126.57
X153.533Y-111.33
X153.533Y-126.57
X153.653Y-50.08
X153.653Y-52.62
X153.653Y-55.16
X153.653Y-57.7
X153.653Y-60.24
X153.653Y-62.78
X153.653Y-65.32
X153.653Y-67.86
X153.653Y-70.4
X153.653Y-72.94
X153.653Y-75.48
X153.653Y-78.02
X161.273Y-50.08
X161.273Y-52.62
X161.273Y-55.16
X161.273Y-57.7
X161.273Y-60.24
X161.273Y-62.78
X161.273Y-65.32
X161.273Y-67.86
X161.273Y-70.4
X161.273Y-72.94
X161.273Y-75.48
X161.273Y-78.02
T3
X117.063Y-137.92
X117.063Y-141.77
X118.333Y-139.87
X118.413Y-136.02
X119.563Y-141.77
X119.603Y-137.92
X120.873Y-136.02
X120.873Y-139.83
X122.063Y-137.92
X122.143Y-141.77
X123.333Y-139.83
X123.373Y-136.02
X124.563Y-137.92
X124.603Y-141.77
X125.833Y-139.83
X125.953Y-136.02
X127.103Y-141.77
X127.143Y-137.92
X128.413Y-136.02
X128.413Y-139.83
X129.603Y-137.92
X129.683Y-141.77
X130.873Y-139.83
X130.913Y-136.02
X132.103Y-137.92
X132.143Y-141.77
X133.373Y-139.83
X133.613Y-136.02
X134.643Y-141.77
X134.803Y-137.92
X136.073Y-136.02
X136.073Y-139.83
X137.263Y-137.92
X137.343Y-141.77
X138.533Y-139.83
X138.573Y-136.02
X139.763Y-137.92
X139.803Y-141.77
X141.033Y-139.83
X141.233Y-136.02
X142.303Y-141.77
X142.423Y-137.92
X143.693Y-136.02
X143.693Y-139.83
X144.883Y-137.92
X144.963Y-141.77
X146.153Y-139.83
X146.193Y-136.02
X147.383Y-137.92
X147.423Y-141.77
X148.653Y-139.83
X148.933Y-136.02
X149.923Y-141.77
X150.123Y-137.92
X151.393Y-136.02
X151.393Y-139.83
X152.583Y-137.92
X152.663Y-141.77
X153.853Y-139.83
X153.893Y-136.02
X155.083Y-137.92
X155.123Y-141.77
X156.353Y-139.83
X156.473Y-136.02
X157.623Y-141.77
X157.743Y-137.96
X158.973Y-139.87
X159.133Y-136.02
T4
X117.263Y-46.21
X123.693Y-46.21
X125.473Y-82.08
X125.513Y-46.21
X125.553Y-43.63
X129.403Y-43.63
X129.403Y-46.21
X130.593Y-82.04
X139.523Y-81.96
X144.013Y-51.25
X144.643Y-82.0
X150.443Y-51.25
X153.573Y-81.96
X154.133Y-103.04
X154.213Y-97.96
X157.303Y-121.69
X157.303Y-126.81
X158.653Y-81.96
X163.693Y-106.37
X166.313Y-106.37
X168.893Y-106.37
T5
X117.093Y-59.65
X117.093Y-62.42
X117.093Y-65.19
X117.093Y-67.96
X117.093Y-70.73
X117.093Y-73.49
X117.093Y-76.26
X117.093Y-79.03
X117.093Y-81.8
X117.093Y-84.57
X117.093Y-87.34
X117.093Y-90.11
X119.933Y-58.28
X119.933Y-61.05
X119.933Y-63.82
X119.933Y-66.59
X119.933Y-69.35
X119.933Y-72.12
X119.933Y-74.89
X119.933Y-77.66
X119.933Y-80.43
X119.933Y-83.2
X119.933Y-85.97
X119.933Y-88.73
X119.933Y-91.5
T6
X133.853Y-43.59
X137.143Y-43.59
X140.283Y-43.59
X143.293Y-43.59
X146.593Y-43.59
T7
X164.053Y-129.71
T8
X112.063Y-139.23
X118.613Y-51.13
X118.693Y-98.47
X164.093Y-139.19
T0
M30
